Topmarks-Bold.ufo
<glyph name="exclam" format="1">
  <advance width="1241.0"/>
  <unicode hex="0021"/>
  <outline>
    <contour>
      <point x="512.9" y="-0.6" type="curve" smooth="yes"/>
      <point x="612.2" y="-0.6"/>
      <point x="687.2" y="70.1"/>
      <point x="687.2" y="168.0" type="curve" smooth="yes"/>
      <point x="687.2" y="265.8"/>
      <point x="614.8" y="337.6"/>
      <point x="513.9" y="337.6" type="curve" smooth="yes"/>
      <point x="414.6" y="337.6"/>
      <point x="339.6" y="267.8"/>
      <point x="339.6" y="170.8" type="curve" smooth="yes"/>
      <point x="339.6" y="72.1"/>
      <point x="411.1" y="-0.6"/>
    </contour>
    <contour>
      <point x="444.3" y="503.5" type="line"/>
      <point x="569.0" y="503.5" type="line"/>
      <point x="658.6" y="1679.2" type="line"/>
      <point x="357.3" y="1679.2" type="line"/>
    </contour>
  </outline>
</glyph>
<glyph name="quotedbl" format="1">
  <advance width="1213.2"/>
  <unicode hex="0022"/>
  <outline>
    <contour>
      <point x="233.7" y="1667.2" type="line"/>
      <point x="384.5" y="1667.2" type="line"/>
      <point x="384.5" y="2201.2" type="line"/>
      <point x="191.4" y="2201.2" type="line"/>
    </contour>
    <contour>
      <point x="567.7" y="1667.2" type="line"/>
      <point x="717.5" y="1667.2" type="line"/>
      <point x="717.5" y="2201.2" type="line"/>
      <point x="526.3" y="2201.2" type="line"/>
    </contour>
  </outline>
</glyph>
<glyph name="ampersand" format="1">
  <advance width="2774.7"/>
  <unicode hex="0026"/>
  <outline>
    <contour>
      <point x="825.7" y="-45.0" type="curve" smooth="yes"/>
      <point x="1094.7" y="-45.0"/>
      <point x="1272.0" y="66.4"/>
      <point x="1409.9" y="201.3" type="curve"/>
      <point x="1513.4" y="101.8"/>
      <point x="1608.0" y="-2.6"/>
      <point x="1779.4" y="-28.2" type="curve"/>
      <point x="1933.0" y="85.1" type="line"/>
      <point x="1884.7" y="95.9"/>
      <point x="1841.4" y="106.7"/>
      <point x="1805.0" y="117.6" type="curve" smooth="yes"/>
      <point x="1679.8" y="159.0"/>
      <point x="1604.0" y="226.9"/>
      <point x="1518.3" y="314.6" type="curve"/>
      <point x="1647.3" y="479.2"/>
      <point x="1742.9" y="708.7"/>
      <point x="1752.8" y="984.5" type="curve"/>
      <point x="1559.7" y="1008.2" type="line"/>
      <point x="1559.7" y="959.9"/>
      <point x="1555.7" y="911.6"/>
      <point x="1546.9" y="860.4" type="curve" smooth="yes"/>
      <point x="1520.3" y="700.8"/>
      <point x="1461.2" y="556.9"/>
      <point x="1384.3" y="446.6" type="curve"/>
      <point x="904.5" y="936.3" type="line"/>
      <point x="995.1" y="984.6"/>
      <point x="1084.8" y="1044.6"/>
      <point x="1150.8" y="1116.5" type="curve" smooth="yes"/>
      <point x="1206.9" y="1175.7"/>
      <point x="1259.2" y="1253.5"/>
      <point x="1259.2" y="1359.9" type="curve" smooth="yes"/>
      <point x="1259.2" y="1416.1"/>
      <point x="1247.4" y="1463.4"/>
      <point x="1221.8" y="1505.7" type="curve" smooth="yes"/>
      <point x="1151.8" y="1621.0"/>
      <point x="1009.9" y="1689.9"/>
      <point x="825.7" y="1689.9" type="curve" smooth="yes"/>
      <point x="595.2" y="1689.9"/>
      <point x="407.0" y="1583.5"/>
      <point x="407.0" y="1353.9" type="curve" smooth="yes"/>
      <point x="407.0" y="1313.5"/>
      <point x="412.9" y="1275.2"/>
      <point x="425.7" y="1241.7" type="curve" smooth="yes"/>
      <point x="467.1" y="1128.4"/>
      <point x="552.8" y="1051.5"/>
      <point x="632.6" y="971.7" type="curve"/>
      <point x="524.2" y="913.6"/>
      <point x="412.0" y="846.6"/>
      <point x="330.2" y="762.9" type="curve" smooth="yes"/>
      <point x="255.4" y="687.1"/>
      <point x="194.2" y="591.4"/>
      <point x="194.2" y="450.6" type="curve" smooth="yes"/>
      <point x="194.2" y="372.7"/>
      <point x="208.1" y="301.8"/>
      <point x="240.6" y="240.7" type="curve" smooth="yes"/>
      <point x="337.1" y="57.5"/>
      <point x="547.9" y="-45.0"/>
    </contour>
    <contour>
      <point x="821.8" y="119.6" type="curve" smooth="yes"/>
      <point x="760.7" y="119.6"/>
      <point x="704.5" y="128.4"/>
      <point x="653.3" y="145.2" type="curve" smooth="yes"/>
      <point x="521.3" y="189.5"/>
      <point x="402.1" y="285.1"/>
      <point x="402.1" y="455.5" type="curve" smooth="yes"/>
      <point x="402.1" y="505.7"/>
      <point x="411.9" y="550.1"/>
      <point x="430.7" y="589.5" type="curve" smooth="yes"/>
      <point x="493.7" y="716.6"/>
      <point x="621.8" y="788.5"/>
      <point x="747.9" y="853.5" type="curve"/>
      <point x="1013.8" y="591.4" type="line" smooth="yes"/>
      <point x="1093.6" y="511.6"/>
      <point x="1179.4" y="420.0"/>
      <point x="1257.2" y="345.2" type="curve" smooth="yes"/>
      <point x="1272.1" y="330.4"/>
      <point x="1282.8" y="322.5"/>
      <point x="1284.8" y="322.5" type="curve"/>
      <point x="1172.5" y="213.2"/>
      <point x="1042.4" y="119.6"/>
    </contour>
    <contour>
      <point x="784.3" y="1047.6" type="curve"/>
      <point x="757.7" y="1072.2"/>
      <point x="733.2" y="1094.9"/>
      <point x="711.5" y="1117.6" type="curve" smooth="yes"/>
      <point x="659.2" y="1174.7"/>
      <point x="607.0" y="1242.7"/>
      <point x="607.0" y="1348.1" type="curve" smooth="yes"/>
      <point x="607.0" y="1475.2"/>
      <point x="707.5" y="1535.3"/>
      <point x="834.6" y="1535.3" type="curve" smooth="yes"/>
      <point x="958.8" y="1535.3"/>
      <point x="1062.1" y="1474.2"/>
      <point x="1062.1" y="1348.1" type="curve" smooth="yes"/>
      <point x="1062.1" y="1315.6"/>
      <point x="1053.3" y="1286.0"/>
      <point x="1037.5" y="1257.4" type="curve" smooth="yes"/>
      <point x="985.3" y="1162.8"/>
      <point x="882.8" y="1098.9"/>
    </contour>
  </outline>
</glyph>
<glyph name="asterisk" format="1">
  <advance width="1812.4"/>
  <unicode hex="002A"/>
  <outline>
    <contour>
      <point x="902.4" y="1242.4" type="line"/>
      <point x="1048.2" y="1327.1" type="line"/>
      <point x="815.7" y="1617.7" type="line"/>
      <point x="1120.1" y="1719.2" type="line"/>
      <point x="1045.3" y="1863.1" type="line"/>
      <point x="774.3" y="1723.2" type="line"/>
      <point x="774.3" y="2068.0" type="line"/>
      <point x="609.8" y="2068.0" type="line"/>
      <point x="624.6" y="1952.7"/>
      <point x="642.3" y="1833.5"/>
      <point x="657.1" y="1717.3" type="curve"/>
      <point x="329.0" y="1860.1" type="line"/>
      <point x="304.4" y="1703.5" type="line"/>
      <point x="620.6" y="1613.8" type="line"/>
      <point x="399.0" y="1338.0" type="line"/>
      <point x="542.8" y="1251.3" type="line"/>
      <point x="720.1" y="1549.8" type="line"/>
    </contour>
  </outline>
</glyph>
<glyph name="plus" format="1">
  <advance width="2435.1"/>
  <unicode hex="002B"/>
  <outline>
    <contour>
      <point x="842.3" y="104.3" type="line"/>
      <point x="1014.7" y="104.3" type="line"/>
      <point x="1014.7" y="593.0" type="line"/>
      <point x="1536.8" y="593.0" type="line"/>
      <point x="1536.8" y="754.5" type="line"/>
      <point x="1016.7" y="754.5" type="line"/>
      <point x="1016.7" y="1244.1" type="line"/>
      <point x="845.3" y="1244.1" type="line"/>
      <point x="845.3" y="754.5" type="line"/>
      <point x="324.1" y="754.5" type="line"/>
      <point x="324.1" y="593.0" type="line"/>
      <point x="842.3" y="593.0" type="line"/>
    </contour>
  </outline>
</glyph>
<glyph name="comma" format="1">
  <advance width="909.9"/>
  <unicode hex="002C"/>
  <outline>
    <contour>
      <point x="132.0" y="-431.5" type="line"/>
      <point x="283.7" y="-431.5" type="line"/>
      <point x="471.0" y="104.4" type="line"/>
      <point x="255.2" y="104.4" type="line"/>
    </contour>
  </outline>
</glyph>
<glyph name="period" format="1">
  <advance width="637.2"/>
  <unicode hex="002E"/>
  <outline>
    <contour>
      <point x="312.2" y="-1.6" type="curve" smooth="yes"/>
      <point x="404.0" y="-1.6"/>
      <point x="471.5" y="61.7"/>
      <point x="471.5" y="152.9" type="curve" smooth="yes"/>
      <point x="471.5" y="244.1"/>
      <point x="405.6" y="309.3"/>
      <point x="312.3" y="309.3" type="curve" smooth="yes"/>
      <point x="220.5" y="309.3"/>
      <point x="153.0" y="245.1"/>
      <point x="153.0" y="155.7" type="curve" smooth="yes"/>
      <point x="153.0" y="64.5"/>
      <point x="218.9" y="-1.6"/>
    </contour>
  </outline>
</glyph>
<glyph name="slash" format="1">
  <advance width="1222.4"/>
  <unicode hex="002F"/>
  <outline>
    <contour>
      <point x="-71.6" y="-340.2" type="line"/>
      <point x="91.4" y="-340.2" type="line"/>
      <point x="728.8" y="1297.6" type="line"/>
      <point x="561.8" y="1297.6" type="line"/>
    </contour>
  </outline>
</glyph>
<glyph name="zero" format="1">
  <advance width="1291.3"/>
  <unicode hex="0030"/>
  <outline>
    <contour>
      <point x="643.9" y="214.3" type="curve" smooth="yes"/>
      <point x="453.5" y="214.3"/>
      <point x="378.3" y="430.0"/>
      <point x="378.3" y="734.1" type="curve" smooth="yes"/>
      <point x="378.3" y="1042.3"/>
      <point x="455.3" y="1262.6"/>
      <point x="643.9" y="1262.6" type="curve" smooth="yes"/>
      <point x="832.4" y="1262.6"/>
      <point x="905.8" y="1043.5"/>
      <point x="905.8" y="734.1" type="curve" smooth="yes"/>
      <point x="905.8" y="431.7"/>
      <point x="830.2" y="214.3"/>
    </contour>
    <contour>
      <point x="643.4" y="2.9" type="curve" smooth="yes"/>
      <point x="991.8" y="2.9"/>
      <point x="1173.5" y="301.4"/>
      <point x="1173.5" y="734.1" type="curve" smooth="yes"/>
      <point x="1173.5" y="1174.4"/>
      <point x="994.9" y="1474.9"/>
      <point x="643.9" y="1474.9" type="curve" smooth="yes"/>
      <point x="297.6" y="1474.9"/>
      <point x="117.8" y="1173.0"/>
      <point x="117.8" y="734.1" type="curve" smooth="yes"/>
      <point x="117.8" y="300.8"/>
      <point x="296.8" y="2.9"/>
    </contour>
  </outline>
</glyph>
<glyph name="one" format="1">
  <advance width="1014.9"/>
  <unicode hex="0031"/>
  <outline>
    <contour>
      <point x="464.5" y="0.0" type="line"/>
      <point x="722.9" y="0.0" type="line"/>
      <point x="722.9" y="1448.8" type="line"/>
      <point x="470.6" y="1448.8" type="line"/>
      <point x="403.5" y="1397.8"/>
      <point x="264.4" y="1315.6"/>
      <point x="148.4" y="1263.5" type="curve"/>
      <point x="206.5" y="1096.5" type="line"/>
      <point x="312.5" y="1140.5"/>
      <point x="398.5" y="1187.6"/>
      <point x="464.5" y="1238.5" type="curve"/>
    </contour>
  </outline>
</glyph>
<glyph name="two" format="1">
  <advance width="1291.2"/>
  <unicode hex="0032"/>
  <outline>
    <contour>
      <point x="186.4" y="0.0" type="line"/>
      <point x="1071.2" y="0.0" type="line"/>
      <point x="1071.2" y="194.5" type="line"/>
      <point x="464.5" y="194.5" type="line"/>
      <point x="474.7" y="203.9"/>
      <point x="822.7" y="510.2"/>
      <point x="832.9" y="520.3" type="curve" smooth="yes"/>
      <point x="992.8" y="668.3"/>
      <point x="1085.3" y="835.0"/>
      <point x="1085.3" y="1009.8" type="curve" smooth="yes"/>
      <point x="1085.3" y="1312.4"/>
      <point x="847.5" y="1470.4"/>
      <point x="592.3" y="1470.4" type="curve" smooth="yes"/>
      <point x="404.9" y="1470.4"/>
      <point x="238.4" y="1388.7"/>
      <point x="129.6" y="1229.8" type="curve"/>
      <point x="288.7" y="1096.8" type="line"/>
      <point x="376.1" y="1202.1"/>
      <point x="470.8" y="1257.2"/>
      <point x="580.4" y="1257.2" type="curve" smooth="yes"/>
      <point x="732.1" y="1257.2"/>
      <point x="830.2" y="1152.6"/>
      <point x="830.2" y="1001.9" type="curve" smooth="yes"/>
      <point x="830.2" y="860.9"/>
      <point x="728.6" y="737.7"/>
      <point x="578.7" y="579.1" type="curve" smooth="yes"/>
      <point x="563.6" y="563.1"/>
      <point x="202.1" y="202.5"/>
      <point x="186.4" y="187.5" type="curve"/>
    </contour>
  </outline>
</glyph>
<glyph name="three" format="1">
  <advance width="1291.2"/>
  <unicode hex="0033"/>
  <outline>
    <contour>
      <point x="618.6" y="-22.0" type="curve" smooth="yes"/>
      <point x="871.1" y="-22.0"/>
      <point x="1118.5" y="111.5"/>
      <point x="1118.5" y="387.3" type="curve" smooth="yes"/>
      <point x="1118.5" y="635.0"/>
      <point x="944.4" y="731.3"/>
      <point x="855.0" y="758.4" type="curve"/>
      <point x="937.5" y="795.3"/>
      <point x="1080.3" y="883.8"/>
      <point x="1080.3" y="1080.3" type="curve" smooth="yes"/>
      <point x="1080.3" y="1346.2"/>
      <point x="854.3" y="1471.3"/>
      <point x="616.1" y="1471.3" type="curve" smooth="yes"/>
      <point x="440.3" y="1471.3"/>
      <point x="258.8" y="1404.9"/>
      <point x="149.2" y="1269.2" type="curve"/>
      <point x="282.5" y="1122.4" type="line"/>
      <point x="356.6" y="1215.4"/>
      <point x="474.9" y="1256.3"/>
      <point x="590.3" y="1256.3" type="curve" smooth="yes"/>
      <point x="721.8" y="1256.3"/>
      <point x="843.7" y="1201.7"/>
      <point x="843.7" y="1053.2" type="curve" smooth="yes"/>
      <point x="843.7" y="861.9"/>
      <point x="650.3" y="841.8"/>
      <point x="509.2" y="841.8" type="curve" smooth="yes"/>
      <point x="446.0" y="841.8" type="line"/>
      <point x="448.0" y="639.9" type="line"/>
      <point x="525.2" y="641.9" type="line" smooth="yes"/>
      <point x="724.5" y="642.6"/>
      <point x="887.9" y="610.0"/>
      <point x="887.9" y="390.3" type="curve" smooth="yes"/>
      <point x="887.9" y="273.4"/>
      <point x="776.9" y="192.0"/>
      <point x="624.7" y="192.0" type="curve" smooth="yes"/>
      <point x="509.1" y="192.0"/>
      <point x="378.2" y="235.3"/>
      <point x="254.5" y="356.1" type="curve"/>
      <point x="162.3" y="183.8" type="line"/>
      <point x="255.2" y="45.1"/>
      <point x="437.5" y="-22.0"/>
    </contour>
  </outline>
</glyph>
<glyph name="four" format="1">
  <advance width="1253.4"/>
  <unicode hex="0034"/>
  <outline>
    <contour>
      <point x="731.6" y="0.0" type="line"/>
      <point x="981.9" y="0.0" type="line"/>
      <point x="981.9" y="324.9" type="line"/>
      <point x="1169.8" y="324.9" type="line"/>
      <point x="1169.8" y="516.3" type="line"/>
      <point x="981.9" y="516.3" type="line"/>
      <point x="981.9" y="1448.8" type="line"/>
      <point x="705.5" y="1448.8" type="line"/>
      <point x="81.9" y="509.2" type="line"/>
      <point x="81.9" y="324.9" type="line"/>
      <point x="731.6" y="324.9" type="line"/>
    </contour>
    <contour>
      <point x="333.0" y="516.3" type="line"/>
      <point x="627.4" y="1001.4" type="line"/>
      <point x="731.6" y="1173.5" type="line"/>
      <point x="731.6" y="516.3" type="line"/>
    </contour>
  </outline>
</glyph>
<glyph name="five" format="1">
  <advance width="1253.4"/>
  <unicode hex="0035"/>
  <outline>
    <contour>
      <point x="192.7" y="159.5" type="line"/>
      <point x="302.0" y="28.9"/>
      <point x="461.2" y="-32.0"/>
      <point x="622.5" y="-31.1" type="curve" smooth="yes"/>
      <point x="890.6" y="-28.4"/>
      <point x="1142.5" y="143.0"/>
      <point x="1142.5" y="434.6" type="curve" smooth="yes"/>
      <point x="1142.5" y="766.0"/>
      <point x="930.5" y="925.7"/>
      <point x="716.7" y="926.6" type="curve" smooth="yes"/>
      <point x="619.1" y="927.5"/>
      <point x="526.1" y="894.3"/>
      <point x="458.9" y="831.8" type="curve"/>
      <point x="473.8" y="1215.6" type="line"/>
      <point x="1037.0" y="1215.6" type="line"/>
      <point x="1037.0" y="1409.2" type="line"/>
      <point x="248.7" y="1409.2" type="line"/>
      <point x="248.7" y="626.8" type="line"/>
      <point x="423.8" y="627.4" type="line"/>
      <point x="494.4" y="700.0"/>
      <point x="580.3" y="736.4"/>
      <point x="661.2" y="735.5" type="curve" smooth="yes"/>
      <point x="796.2" y="733.7"/>
      <point x="906.1" y="632.6"/>
      <point x="906.1" y="437.6" type="curve" smooth="yes"/>
      <point x="906.1" y="301.5"/>
      <point x="786.7" y="179.3"/>
      <point x="616.9" y="180.2" type="curve" smooth="yes"/>
      <point x="511.0" y="181.1"/>
      <point x="393.8" y="230.5"/>
      <point x="281.8" y="346.6" type="curve"/>
    </contour>
  </outline>
</glyph>
<glyph name="six" format="1">
  <advance width="1291.2"/>
  <unicode hex="0036"/>
  <outline>
    <contour>
      <point x="650.1" y="-33.7" type="curve" smooth="yes"/>
      <point x="905.5" y="-33.7"/>
      <point x="1152.8" y="131.8"/>
      <point x="1152.8" y="455.9" type="curve" smooth="yes"/>
      <point x="1152.8" y="723.3"/>
      <point x="951.7" y="934.3"/>
      <point x="682.8" y="934.3" type="curve" smooth="yes"/>
      <point x="577.3" y="934.3"/>
      <point x="447.6" y="889.1"/>
      <point x="401.5" y="836.4" type="curve"/>
      <point x="486.7" y="1113.4"/>
      <point x="671.2" y="1293.2"/>
      <point x="979.9" y="1375.3" type="curve"/>
      <point x="907.0" y="1562.3" type="line"/>
      <point x="265.3" y="1393.7"/>
      <point x="116.7" y="843.2"/>
      <point x="139.3" y="463.2" type="curve" smooth="yes"/>
      <point x="158.3" y="141.0"/>
      <point x="384.2" y="-33.7"/>
    </contour>
    <contour>
      <point x="640.0" y="163.2" type="curve" smooth="yes"/>
      <point x="489.7" y="163.2"/>
      <point x="354.0" y="263.2"/>
      <point x="354.0" y="444.7" type="curve" smooth="yes"/>
      <point x="354.0" y="642.0"/>
      <point x="499.4" y="743.4"/>
      <point x="644.7" y="743.4" type="curve" smooth="yes"/>
      <point x="794.8" y="743.4"/>
      <point x="923.7" y="637.6"/>
      <point x="923.7" y="441.9" type="curve" smooth="yes"/>
      <point x="923.7" y="258.5"/>
      <point x="785.3" y="163.2"/>
    </contour>
  </outline>
</glyph>
<glyph name="seven" format="1">
  <advance width="1253.4"/>
  <unicode hex="0037"/>
  <outline>
    <contour>
      <point x="333.0" y="0.0" type="line"/>
      <point x="596.4" y="0.0" type="line"/>
      <point x="1128.4" y="1245.3" type="line"/>
      <point x="1128.4" y="1417.3" type="line"/>
      <point x="162.9" y="1417.3" type="line"/>
      <point x="162.9" y="1223.7" type="line"/>
      <point x="870.7" y="1223.7" type="line"/>
    </contour>
  </outline>
</glyph>
<glyph name="eight" format="1">
  <advance width="1254.3"/>
  <unicode hex="0038"/>
  <outline>
    <contour>
      <point x="650.1" y="-22.1" type="curve" smooth="yes"/>
      <point x="939.613013436" y="-22.1"/>
      <point x="1166.6" y="92.9"/>
      <point x="1166.6" y="374.3" type="curve" smooth="yes"/>
      <point x="1166.6" y="589.1"/>
      <point x="1033.2" y="706.8"/>
      <point x="889.3" y="759.8" type="curve"/>
      <point x="1018.5" y="808.8"/>
      <point x="1131.6" y="922.6"/>
      <point x="1131.6" y="1100.3" type="curve" smooth="yes"/>
      <point x="1131.6" y="1300.9"/>
      <point x="959.7" y="1471.3"/>
      <point x="650.1" y="1471.3" type="curve" smooth="yes"/>
      <point x="379.1" y="1471.3"/>
      <point x="169.5" y="1346.8"/>
      <point x="169.5" y="1100.3" type="curve" smooth="yes"/>
      <point x="169.5" y="913.6"/>
      <point x="279.9" y="808.8"/>
      <point x="409.1" y="759.8" type="curve"/>
      <point x="267.0" y="706.8"/>
      <point x="132.7" y="589.1"/>
      <point x="132.7" y="374.3" type="curve" smooth="yes"/>
      <point x="132.7" y="125.8"/>
      <point x="348.676983088" y="-22.1"/>
    </contour>
    <contour>
      <point x="654.6" y="179.3" type="curve" smooth="yes"/>
      <point x="507.0" y="179.3"/>
      <point x="393.4" y="243.4"/>
      <point x="393.4" y="381.9" type="curve" smooth="yes"/>
      <point x="393.4" y="515.3"/>
      <point x="513.4" y="614.0"/>
      <point x="654.6" y="640.8" type="curve"/>
      <point x="782.8" y="616.0"/>
      <point x="914.0" y="526.6"/>
      <point x="914.0" y="381.9" type="curve" smooth="yes"/>
      <point x="914.0" y="251.4"/>
      <point x="810.352971661" y="179.3"/>
    </contour>
    <contour>
      <point x="654.6" y="860.7" type="curve"/>
      <point x="524.6" y="883.4"/>
      <point x="418.0" y="966.8"/>
      <point x="418.0" y="1096.2" type="curve" smooth="yes"/>
      <point x="418.0" y="1208.6"/>
      <point x="516.3" y="1270.5"/>
      <point x="654.6" y="1270.5" type="curve" smooth="yes"/>
      <point x="782.7" y="1270.5"/>
      <point x="888.5" y="1217.1"/>
      <point x="888.5" y="1096.2" type="curve" smooth="yes"/>
      <point x="888.5" y="966.8"/>
      <point x="782.8" y="883.4"/>
    </contour>
  </outline>
</glyph>
<glyph name="nine" format="1">
  <advance width="1291.2"/>
  <unicode hex="0039"/>
  <outline>
    <contour>
      <point x="585.3" y="-126.4" type="line"/>
      <point x="979.5" y="508.0" type="line" smooth="yes"/>
      <point x="1063.3" y="645.3"/>
      <point x="1153.6" y="855.1"/>
      <point x="1153.6" y="980.2" type="curve" smooth="yes"/>
      <point x="1153.6" y="1301.5"/>
      <point x="906.4" y="1471.3"/>
      <point x="640.5" y="1471.3" type="curve" smooth="yes"/>
      <point x="382.1" y="1471.3"/>
      <point x="123.1" y="1309.9"/>
      <point x="123.1" y="985.1" type="curve" smooth="yes"/>
      <point x="123.1" y="718.6"/>
      <point x="335.7" y="506.9"/>
      <point x="618.5" y="506.9" type="curve" smooth="yes"/>
      <point x="681.7" y="506.9"/>
      <point x="712.6" y="515.9"/>
      <point x="724.2" y="521.9" type="curve"/>
      <point x="385.4" y="-17.1" type="line"/>
    </contour>
    <contour>
      <point x="653.8" y="696.0" type="curve" smooth="yes"/>
      <point x="499.7" y="696.0"/>
      <point x="353.6" y="803.9"/>
      <point x="353.6" y="997.6" type="curve" smooth="yes"/>
      <point x="353.6" y="1182.5"/>
      <point x="501.5" y="1277.3"/>
      <point x="649.8" y="1277.3" type="curve" smooth="yes"/>
      <point x="801.1" y="1277.3"/>
      <point x="939.8" y="1180.4"/>
      <point x="939.8" y="995.6" type="curve" smooth="yes"/>
      <point x="939.8" y="798.2"/>
      <point x="801.7" y="696.0"/>
    </contour>
  </outline>
</glyph>
<glyph name="semicolon" format="1">
  <advance width="909.9"/>
  <unicode hex="003B"/>
  <outline>
    <contour>
      <point x="168.4" y="-431.5" type="line"/>
      <point x="320.1" y="-431.5" type="line"/>
      <point x="508.3" y="104.4" type="line"/>
      <point x="291.5" y="104.4" type="line"/>
    </contour>
    <contour>
      <point x="237.3" y="834.9" type="line"/>
      <point x="488.5" y="834.9" type="line"/>
      <point x="488.5" y="1078.2" type="line"/>
      <point x="286.8" y="1078.2" type="line"/>
    </contour>
  </outline>
</glyph>
<glyph name="less" format="1">
  <advance width="2456.1"/>
  <unicode hex="003C"/>
  <outline>
    <contour>
      <point x="1368.8" y="80.4" type="line"/>
      <point x="1368.8" y="232.4" type="line"/>
      <point x="587.4" y="582.6" type="line"/>
      <point x="1372.8" y="943.7" type="line"/>
      <point x="1372.8" y="1094.9" type="line"/>
      <point x="369.3" y="625.6" type="line"/>
      <point x="369.3" y="538.6" type="line"/>
    </contour>
  </outline>
</glyph>
<glyph name="equal" format="1">
  <advance width="1291.2"/>
  <unicode hex="003D"/>
  <outline>
    <contour>
      <point x="214.2" y="445.3" type="line"/>
      <point x="1078.0" y="445.3" type="line"/>
      <point x="1078.0" y="585.0" type="line"/>
      <point x="214.2" y="585.0" type="line"/>
    </contour>
    <contour>
      <point x="213.2" y="848.6" type="line"/>
      <point x="1077.9" y="848.6" type="line"/>
      <point x="1077.9" y="991.1" type="line"/>
      <point x="213.2" y="991.1" type="line"/>
    </contour>
  </outline>
</glyph>
<glyph name="question" format="1">
  <advance width="1183.2"/>
  <unicode hex="003F"/>
  <outline>
    <contour>
      <point x="447.1" y="366.2" type="curve"/>
      <point x="562.2" y="366.2" type="line"/>
      <point x="561.8" y="704.0"/>
      <point x="954.9" y="736.3"/>
      <point x="954.9" y="1059.0" type="curve" smooth="yes"/>
      <point x="954.9" y="1304.7"/>
      <point x="831.7" y="1401.7"/>
      <point x="633.7" y="1436.3" type="curve" smooth="yes"/>
      <point x="541.0" y="1456.8"/>
      <point x="424.2" y="1452.4"/>
      <point x="303.1" y="1413.7" type="curve" smooth="yes"/>
      <point x="292.5" y="1413.7"/>
      <point x="310.9" y="1262.1"/>
      <point x="302.9" y="1258.2" type="curve"/>
      <point x="369.5" y="1296.0"/>
      <point x="451.4" y="1305.2"/>
      <point x="526.1" y="1305.2" type="curve"/>
      <point x="654.0" y="1315.4"/>
      <point x="783.3" y="1263.6"/>
      <point x="783.3" y="1102.5" type="curve" smooth="yes"/>
      <point x="783.3" y="886.4"/>
      <point x="446.1" y="839.8"/>
      <point x="446.1" y="420.2" type="curve" smooth="yes"/>
      <point x="446.1" y="401.7"/>
      <point x="445.7" y="383.6"/>
    </contour>
    <contour>
      <point x="500.8" y="0.0" type="curve" smooth="yes"/>
      <point x="586.3" y="0.0"/>
      <point x="649.3" y="60.6"/>
      <point x="649.3" y="143.7" type="curve" smooth="yes"/>
      <point x="649.3" y="227.7"/>
      <point x="588.8" y="289.3"/>
      <point x="502.7" y="289.3" type="curve" smooth="yes"/>
      <point x="417.2" y="289.3"/>
      <point x="353.3" y="228.7"/>
      <point x="353.3" y="145.6" type="curve" smooth="yes"/>
      <point x="353.3" y="61.6"/>
      <point x="413.8" y="0.0"/>
    </contour>
  </outline>
</glyph>
<glyph name="at" format="1">
  <advance width="1952.7"/>
  <unicode hex="0040"/>
  <outline>
    <contour>
      <point x="1020.4" y="-110.8" type="curve" smooth="yes"/>
      <point x="1215.0" y="-110.8"/>
      <point x="1411.3" y="-60.2"/>
      <point x="1581.6" y="39.2" type="curve"/>
      <point x="1492.6" y="171.3" type="line"/>
      <point x="1357.8" y="96.8"/>
      <point x="1203.8" y="57.0"/>
      <point x="1048.8" y="57.0" type="curve" smooth="yes"/>
      <point x="693.0" y="57.0"/>
      <point x="370.4" y="265.7"/>
      <point x="370.4" y="678.8" type="curve" smooth="yes"/>
      <point x="370.4" y="1089.7"/>
      <point x="702.6" y="1301.2"/>
      <point x="1031.1" y="1301.2" type="curve" smooth="yes"/>
      <point x="1331.4" y="1301.2"/>
      <point x="1613.6" y="1126.6"/>
      <point x="1613.6" y="790.6" type="curve" smooth="yes"/>
      <point x="1613.6" y="507.0"/>
      <point x="1493.6" y="380.6"/>
      <point x="1395.7" y="380.6" type="curve" smooth="yes"/>
      <point x="1343.8" y="380.6"/>
      <point x="1305.5" y="416.9"/>
      <point x="1305.5" y="476.5" type="curve" smooth="yes"/>
      <point x="1305.5" y="498.8"/>
      <point x="1359.6" y="741.6"/>
      <point x="1441.5" y="1099.8" type="curve"/>
      <point x="1261.3" y="1099.8" type="line"/>
      <point x="1224.4" y="1014.8" type="line"/>
      <point x="1159.3" y="1095.5"/>
      <point x="1076.2" y="1130.8"/>
      <point x="987.3" y="1130.8" type="curve" smooth="yes"/>
      <point x="764.1" y="1130.8"/>
      <point x="529.8" y="900.3"/>
      <point x="529.8" y="623.5" type="curve" smooth="yes"/>
      <point x="529.8" y="394.9"/>
      <point x="674.8" y="252.5"/>
      <point x="844.9" y="252.5" type="curve" smooth="yes"/>
      <point x="951.0" y="252.5"/>
      <point x="1057.4" y="308.5"/>
      <point x="1133.4" y="424.5" type="curve"/>
      <point x="1136.2" y="302.1"/>
      <point x="1244.5" y="248.4"/>
      <point x="1358.5" y="248.4" type="curve" smooth="yes"/>
      <point x="1627.6" y="248.4"/>
      <point x="1809.8" y="468.3"/>
      <point x="1809.8" y="785.6" type="curve" smooth="yes"/>
      <point x="1809.8" y="1239.2"/>
      <point x="1432.9" y="1467.9"/>
      <point x="1033.4" y="1467.9" type="curve" smooth="yes"/>
      <point x="592.9" y="1467.9"/>
      <point x="142.9" y="1227.6"/>
      <point x="142.9" y="674.5" type="curve" smooth="yes"/>
      <point x="142.9" y="171.9"/>
      <point x="557.5" y="-110.8"/>
    </contour>
    <contour>
      <point x="901.5" y="414.7" type="curve" smooth="yes"/>
      <point x="822.4" y="414.7"/>
      <point x="759.7" y="477.6"/>
      <point x="759.7" y="601.8" type="curve" smooth="yes"/>
      <point x="759.7" y="829.9"/>
      <point x="911.7" y="979.1"/>
      <point x="1034.3" y="979.1" type="curve" smooth="yes"/>
      <point x="1105.3" y="979.1"/>
      <point x="1158.4" y="928.8"/>
      <point x="1158.4" y="821.0" type="curve" smooth="yes"/>
      <point x="1158.4" y="560.8"/>
      <point x="1020.1" y="414.7"/>
    </contour>
  </outline>
</glyph>
<glyph name="C" format="1">
  <advance width="1472.0"/>
  <unicode hex="0043"/>
  <outline>
    <contour>
      <point x="891.6" y="-22.0" type="curve" smooth="yes"/>
      <point x="1069.2" y="-22.0"/>
      <point x="1271.4" y="24.7"/>
      <point x="1381.4" y="114.4" type="curve"/>
      <point x="1305.5" y="324.6" type="line"/>
      <point x="1206.3" y="244.7"/>
      <point x="1051.5" y="193.0"/>
      <point x="912.8" y="193.0" type="curve" smooth="yes"/>
      <point x="603.6" y="193.0"/>
      <point x="403.9" y="410.8"/>
      <point x="403.9" y="719.6" type="curve" smooth="yes"/>
      <point x="403.9" y="1036.4"/>
      <point x="606.3" y="1256.3"/>
      <point x="915.3" y="1256.3" type="curve" smooth="yes"/>
      <point x="1042.4" y="1256.3"/>
      <point x="1185.6" y="1202.0"/>
      <point x="1279.4" y="1126.8" type="curve"/>
      <point x="1366.5" y="1321.2" type="line"/>
      <point x="1254.7" y="1410.4"/>
      <point x="1081.2" y="1471.3"/>
      <point x="910.7" y="1471.3" type="curve" smooth="yes"/>
      <point x="450.3" y="1471.3"/>
      <point x="140.8" y="1171.6"/>
      <point x="140.8" y="720.6" type="curve" smooth="yes"/>
      <point x="140.8" y="275.3"/>
      <point x="430.8" y="-22.0"/>
    </contour>
  </outline>
</glyph>
<glyph name="H" format="1">
  <advance width="1615.4"/>
  <unicode hex="0048"/>
  <outline>
    <contour>
      <point x="188.4" y="0.0" type="line"/>
      <point x="438.7" y="0.0" type="line"/>
      <point x="438.7" y="638.9" type="line"/>
      <point x="1185.8" y="638.9" type="line"/>
      <point x="1185.8" y="0.0" type="line"/>
      <point x="1427.0" y="0.0" type="line"/>
      <point x="1427.0" y="1448.8" type="line"/>
      <point x="1185.8" y="1448.8" type="line"/>
      <point x="1185.8" y="847.2" type="line"/>
      <point x="438.7" y="847.2" type="line"/>
      <point x="438.7" y="1448.8" type="line"/>
      <point x="188.4" y="1448.8" type="line"/>
    </contour>
  </outline>
</glyph>
<glyph name="L" format="1">
  <advance width="1123.9"/>
  <unicode hex="004C"/>
  <outline>
    <contour>
      <point x="188.4" y="0.0" type="line"/>
      <point x="1089.1" y="0.0" type="line"/>
      <point x="1089.1" y="194.8" type="line"/>
      <point x="438.7" y="194.8" type="line"/>
      <point x="438.7" y="1448.8" type="line"/>
      <point x="188.4" y="1448.8" type="line"/>
    </contour>
  </outline>
</glyph>
<glyph name="N" format="1">
  <advance width="1683.4"/>
  <unicode hex="004E"/>
  <outline>
    <contour>
      <point x="188.4" y="0.0" type="line"/>
      <point x="413.5" y="0.0" type="line"/>
      <point x="413.5" y="1123.6" type="line"/>
      <point x="529.6" y="965.4" type="line"/>
      <point x="1233.0" y="0.0" type="line"/>
      <point x="1495.0" y="0.0" type="line"/>
      <point x="1495.0" y="1448.8" type="line"/>
      <point x="1270.0" y="1448.8" type="line"/>
      <point x="1270.0" y="303.2" type="line"/>
      <point x="1147.9" y="484.2" type="line"/>
      <point x="447.5" y="1448.8" type="line"/>
      <point x="188.4" y="1448.8" type="line"/>
    </contour>
  </outline>
</glyph>
<glyph name="O" format="1">
  <advance width="1741.9"/>
  <unicode hex="004F"/>
  <outline>
    <contour>
      <point x="870.5" y="192.7" type="curve" smooth="yes"/>
      <point x="595.2" y="192.7"/>
      <point x="404.9" y="400.2"/>
      <point x="404.9" y="724.5" type="curve" smooth="yes"/>
      <point x="404.9" y="1054.2"/>
      <point x="595.2" y="1256.3"/>
      <point x="870.5" y="1256.3" type="curve" smooth="yes"/>
      <point x="1145.8" y="1256.3"/>
      <point x="1337.0" y="1054.2"/>
      <point x="1337.0" y="724.5" type="curve" smooth="yes"/>
      <point x="1337.0" y="400.2"/>
      <point x="1145.8" y="192.7"/>
    </contour>
    <contour>
      <point x="870.5" y="-22.3" type="curve" smooth="yes"/>
      <point x="1313.0" y="-22.3"/>
      <point x="1601.1" y="282.0"/>
      <point x="1601.1" y="726.2" type="curve" smooth="yes"/>
      <point x="1601.1" y="1172.4"/>
      <point x="1313.0" y="1471.3"/>
      <point x="870.5" y="1471.3" type="curve" smooth="yes"/>
      <point x="428.0" y="1471.3"/>
      <point x="140.8" y="1172.4"/>
      <point x="140.8" y="726.2" type="curve" smooth="yes"/>
      <point x="140.8" y="282.0"/>
      <point x="428.0" y="-22.3"/>
    </contour>
  </outline>
</glyph>
<glyph name="Q" format="1">
  <advance width="1741.9"/>
  <unicode hex="0051"/>
  <outline>
    <contour>
      <point x="1258.7" y="-424.7" type="curve"/>
      <point x="1433.7" y="-271.6" type="line"/>
      <point x="1336.6" y="-180.6"/>
      <point x="1248.6" y="-77.6"/>
      <point x="1185.6" y="51.5" type="curve"/>
      <point x="958.5" y="-17.5" type="line"/>
      <point x="1034.5" y="-179.6"/>
      <point x="1143.5" y="-308.6"/>
    </contour>
    <component base="O"/>
  </outline>
</glyph>
<glyph name="T" format="1">
  <advance width="1217.7"/>
  <unicode hex="0054"/>
  <outline>
    <contour>
      <point x="484.0" y="0.0" type="line"/>
      <point x="733.4" y="0.0" type="line"/>
      <point x="733.4" y="1254.0" type="line"/>
      <point x="1164.9" y="1254.0" type="line"/>
      <point x="1164.9" y="1448.8" type="line"/>
      <point x="53.7" y="1448.8" type="line"/>
      <point x="53.7" y="1254.0" type="line"/>
      <point x="484.0" y="1254.0" type="line"/>
    </contour>
  </outline>
</glyph>
<glyph name="U" format="1">
  <advance width="1579.2"/>
  <unicode hex="0055"/>
  <outline>
    <contour>
      <point x="802.1" y="-22.0" type="curve" smooth="yes"/>
      <point x="1171.3" y="-22.0"/>
      <point x="1411.4" y="210.8"/>
      <point x="1411.6" y="557.3" type="curve"/>
      <point x="1411.6" y="1448.8" type="line"/>
      <point x="1162.3" y="1448.8" type="line"/>
      <point x="1162.3" y="544.4" type="line" smooth="yes"/>
      <point x="1162.3" y="329.4"/>
      <point x="1020.6" y="192.3"/>
      <point x="801.0" y="192.3" type="curve" smooth="yes"/>
      <point x="568.6" y="192.3"/>
      <point x="417.9" y="330.2"/>
      <point x="417.9" y="551.4" type="curve" smooth="yes"/>
      <point x="417.9" y="1448.8" type="line"/>
      <point x="168.5" y="1448.8" type="line"/>
      <point x="168.5" y="546.4" type="line" smooth="yes"/>
      <point x="168.5" y="202.9"/>
      <point x="418.1" y="-22.0"/>
    </contour>
  </outline>
</glyph>
<glyph name="Z" format="1">
  <advance width="1284.1"/>
  <unicode hex="005A"/>
  <outline>
    <contour>
      <point x="99.2" y="0.0" type="line"/>
      <point x="1178.4" y="0.0" type="line"/>
      <point x="1178.4" y="194.8" type="line"/>
      <point x="392.0" y="194.8" type="line"/>
      <point x="1186.4" y="1278.0" type="line"/>
      <point x="1186.4" y="1448.8" type="line"/>
      <point x="130.3" y="1448.8" type="line"/>
      <point x="130.3" y="1254.0" type="line"/>
      <point x="895.9" y="1254.0" type="line"/>
      <point x="99.2" y="187.4" type="line"/>
    </contour>
  </outline>
</glyph>
<glyph name="backslash" format="1">
  <advance width="1200.1"/>
  <unicode hex="005C"/>
  <outline>
    <contour>
      <point x="794.7" y="-21.5" type="line"/>
      <point x="1022.5" y="-21.5" type="line"/>
      <point x="408.0" y="1448.3" type="line"/>
      <point x="178.0" y="1448.3" type="line"/>
    </contour>
  </outline>
</glyph>
<glyph name="grave" format="1">
  <advance width="998.9"/>
  <unicode hex="0060"/>
  <outline>
    <contour>
      <point x="236.7" y="1974.8" type="line"/>
      <point x="419.7" y="1974.8" type="line"/>
      <point x="173.6" y="2293.0" type="line"/>
      <point x="-93.5" y="2293.0" type="line"/>
    </contour>
  </outline>
</glyph>
<glyph name="a" format="1">
  <advance width="1286.0"/>
  <unicode hex="0061"/>
  <outline>
    <contour>
      <point x="534.8" y="-22.0" type="curve" smooth="yes"/>
      <point x="676.6" y="-22.0"/>
      <point x="819.4" y="54.8"/>
      <point x="874.8" y="160.6" type="curve"/>
      <point x="901.4" y="64.0"/>
      <point x="1017.8" y="-7.6"/>
      <point x="1161.7" y="-7.6" type="curve"/>
      <point x="1236.2" y="192.1" type="line"/>
      <point x="1144.1" y="192.1"/>
      <point x="1072.5" y="249.3"/>
      <point x="1072.5" y="328.3" type="curve" smooth="yes"/>
      <point x="1072.5" y="911.6" type="line"/>
      <point x="978.1" y="968.1"/>
      <point x="815.3" y="1019.2"/>
      <point x="677.7" y="1019.2" type="curve" smooth="yes"/>
      <point x="336.2" y="1019.2"/>
      <point x="97.2" y="774.3"/>
      <point x="97.2" y="426.3" type="curve" smooth="yes"/>
      <point x="97.2" y="163.8"/>
      <point x="273.1" y="-22.0"/>
    </contour>
    <contour>
      <point x="554.4" y="168.2" type="curve" smooth="yes"/>
      <point x="427.4" y="168.2"/>
      <point x="337.4" y="278.7"/>
      <point x="337.4" y="435.4" type="curve" smooth="yes"/>
      <point x="337.4" y="665.4"/>
      <point x="473.2" y="828.7"/>
      <point x="665.7" y="828.7" type="curve" smooth="yes"/>
      <point x="725.5" y="828.7"/>
      <point x="797.2" y="814.7"/>
      <point x="838.3" y="792.8" type="curve"/>
      <point x="838.3" y="422.4" type="line" smooth="yes"/>
      <point x="838.3" y="274.5"/>
      <point x="721.7" y="168.2"/>
    </contour>
  </outline>
</glyph>
<glyph name="c" format="1">
  <advance width="1106.6"/>
  <unicode hex="0063"/>
  <outline>
    <contour>
      <point x="641.3" y="-22.1" type="curve" smooth="yes"/>
      <point x="774.1" y="-22.1"/>
      <point x="912.0" y="17.5"/>
      <point x="1032.9" y="104.8" type="curve"/>
      <point x="957.0" y="284.8" type="line"/>
      <point x="858.7" y="204.1"/>
      <point x="753.7" y="168.5"/>
      <point x="659.2" y="168.5" type="curve" smooth="yes"/>
      <point x="455.5" y="168.5"/>
      <point x="339.3" y="328.3"/>
      <point x="339.3" y="500.8" type="curve" smooth="yes"/>
      <point x="339.3" y="681.4"/>
      <point x="471.3" y="824.1"/>
      <point x="660.6" y="824.1" type="curve" smooth="yes"/>
      <point x="743.0" y="824.1"/>
      <point x="836.4" y="796.3"/>
      <point x="933.0" y="733.3" type="curve"/>
      <point x="1002.9" y="907.4" type="line"/>
      <point x="879.8" y="987.8"/>
      <point x="759.3" y="1019.4"/>
      <point x="642.8" y="1019.4" type="curve" smooth="yes"/>
      <point x="342.5" y="1019.4"/>
      <point x="98.2" y="798.9"/>
      <point x="98.2" y="499.4" type="curve" smooth="yes"/>
      <point x="98.2" y="230.8"/>
      <point x="283.8" y="-22.1"/>
    </contour>
  </outline>
</glyph>
<glyph name="d" format="1">
  <advance width="1346.6"/>
  <unicode hex="0064"/>
  <outline>
    <contour>
      <point x="583.5" y="-22.0" type="curve" smooth="yes"/>
      <point x="736.4" y="-22.0"/>
      <point x="864.4" y="45.7"/>
      <point x="918.1" y="148.2" type="curve"/>
      <point x="927.5" y="102.0"/>
      <point x="956.3" y="38.3"/>
      <point x="990.7" y="-13.9" type="curve"/>
      <point x="1215.7" y="27.1" type="line"/>
      <point x="1168.9" y="94.0"/>
      <point x="1138.5" y="233.1"/>
      <point x="1138.5" y="389.1" type="curve" smooth="yes"/>
      <point x="1138.5" y="1542.2" type="line"/>
      <point x="902.4" y="1528.5" type="line"/>
      <point x="902.4" y="927.8" type="line"/>
      <point x="827.5" y="984.9"/>
      <point x="723.6" y="1019.2"/>
      <point x="618.6" y="1019.2" type="curve" smooth="yes"/>
      <point x="303.3" y="1019.2"/>
      <point x="97.2" y="805.5"/>
      <point x="97.2" y="487.5" type="curve" smooth="yes"/>
      <point x="97.2" y="182.4"/>
      <point x="292.4" y="-22.0"/>
    </contour>
    <contour>
      <point x="604.2" y="168.2" type="curve" smooth="yes"/>
      <point x="445.0" y="168.2"/>
      <point x="338.3" y="298.3"/>
      <point x="338.3" y="493.5" type="curve" smooth="yes"/>
      <point x="338.3" y="693.3"/>
      <point x="455.3" y="828.7"/>
      <point x="637.2" y="828.7" type="curve" smooth="yes"/>
      <point x="742.7" y="828.7"/>
      <point x="851.8" y="784.6"/>
      <point x="902.5" y="717.0" type="curve"/>
      <point x="902.5" y="519.6" type="line" smooth="yes"/>
      <point x="902.5" y="311.3"/>
      <point x="783.8" y="168.2"/>
    </contour>
  </outline>
</glyph>
<glyph name="e" format="1">
  <advance width="1154.6"/>
  <unicode hex="0065"/>
  <outline>
    <contour>
      <point x="650.5" y="-22.0" type="curve" smooth="yes"/>
      <point x="803.3" y="-22.0"/>
      <point x="976.9" y="43.0"/>
      <point x="1088.6" y="142.4" type="curve"/>
      <point x="1001.1" y="306.0" type="line"/>
      <point x="915.2" y="221.9"/>
      <point x="776.9" y="168.2"/>
      <point x="654.1" y="168.2" type="curve" smooth="yes"/>
      <point x="518.7" y="168.2"/>
      <point x="397.9" y="238.8"/>
      <point x="357.9" y="349.4" type="curve"/>
      <point x="760.3" y="356.6"/>
      <point x="1018.0" y="502.4"/>
      <point x="1018.0" y="731.2" type="curve" smooth="yes"/>
      <point x="1018.0" y="902.7"/>
      <point x="863.8" y="1019.2"/>
      <point x="635.2" y="1019.2" type="curve" smooth="yes"/>
      <point x="317.9" y="1019.2"/>
      <point x="97.2" y="791.6"/>
      <point x="97.2" y="500.7" type="curve" smooth="yes"/>
      <point x="97.2" y="185.2"/>
      <point x="319.5" y="-22.0"/>
    </contour>
    <contour>
      <point x="335.1" y="515.2" type="curve"/>
      <point x="334.9" y="516.8"/>
      <point x="334.8" y="526.8"/>
      <point x="334.8" y="528.2" type="curve" smooth="yes"/>
      <point x="339.3" y="716.7"/>
      <point x="481.0" y="838.6"/>
      <point x="640.7" y="838.6" type="curve" smooth="yes"/>
      <point x="730.2" y="838.6"/>
      <point x="788.4" y="792.9"/>
      <point x="788.4" y="725.3" type="curve" smooth="yes"/>
      <point x="788.4" y="606.6"/>
      <point x="615.2" y="526.8"/>
    </contour>
  </outline>
</glyph>
<glyph name="f" format="1">
  <advance width="828.6"/>
  <unicode hex="0066"/>
  <outline>
    <contour>
      <point x="151.3" y="-452.6" type="line"/>
      <point x="427.2" y="-417.1"/>
      <point x="544.8" y="-271.8"/>
      <point x="544.8" y="-11.0" type="curve" smooth="yes"/>
      <point x="544.8" y="851.5" type="line"/>
      <point x="760.4" y="851.5" type="line"/>
      <point x="760.4" y="999.0" type="line"/>
      <point x="544.8" y="999.0" type="line"/>
      <point x="544.8" y="1093.1" type="line" smooth="yes"/>
      <point x="544.8" y="1243.2"/>
      <point x="612.8" y="1296.5"/>
      <point x="718.1" y="1296.5" type="curve" smooth="yes"/>
      <point x="746.0" y="1296.5"/>
      <point x="775.9" y="1293.9"/>
      <point x="808.4" y="1284.9" type="curve"/>
      <point x="832.4" y="1443.2" type="line"/>
      <point x="778.3" y="1464.3"/>
      <point x="720.1" y="1476.2"/>
      <point x="662.5" y="1476.2" type="curve" smooth="yes"/>
      <point x="476.7" y="1476.2"/>
      <point x="309.7" y="1362.7"/>
      <point x="309.7" y="1122.3" type="curve" smooth="yes"/>
      <point x="309.7" y="999.0" type="line"/>
      <point x="113.1" y="999.0" type="line"/>
      <point x="113.1" y="851.5" type="line"/>
      <point x="309.7" y="851.5" type="line"/>
      <point x="309.7" y="-20.5" type="line" smooth="yes"/>
      <point x="309.7" y="-158.9"/>
      <point x="255.7" y="-234.2"/>
      <point x="130.3" y="-263.2" type="curve"/>
    </contour>
  </outline>
</glyph>
<glyph name="g" format="1">
  <advance width="1215.0"/>
  <unicode hex="0067"/>
  <outline>
    <contour>
      <point x="515.1" y="-538.1" type="curve" smooth="yes"/>
      <point x="848.3" y="-538.1"/>
      <point x="1071.6" y="-326.7"/>
      <point x="1071.6" y="-8.6" type="curve" smooth="yes"/>
      <point x="1071.6" y="911.6" type="line"/>
      <point x="977.2" y="968.1"/>
      <point x="814.4" y="1019.2"/>
      <point x="676.8" y="1019.2" type="curve" smooth="yes"/>
      <point x="335.3" y="1019.2"/>
      <point x="95.4" y="773.4"/>
      <point x="95.4" y="425.4" type="curve" smooth="yes"/>
      <point x="95.4" y="162.9"/>
      <point x="272.2" y="-22.0"/>
      <point x="533.9" y="-22.0" type="curve" smooth="yes"/>
      <point x="643.5" y="-22.0"/>
      <point x="754.3" y="24.6"/>
      <point x="823.9" y="94.3" type="curve"/>
      <point x="823.9" y="-17.9" type="line" smooth="yes"/>
      <point x="823.9" y="-205.0"/>
      <point x="684.0" y="-330.9"/>
      <point x="474.1" y="-330.9" type="curve" smooth="yes"/>
      <point x="385.1" y="-330.9"/>
      <point x="272.1" y="-302.6"/>
      <point x="190.0" y="-262.0" type="curve"/>
      <point x="145.8" y="-457.3" type="line"/>
      <point x="247.7" y="-506.9"/>
      <point x="396.1" y="-538.1"/>
    </contour>
    <contour>
      <point x="553.5" y="168.2" type="curve" smooth="yes"/>
      <point x="426.5" y="168.2"/>
      <point x="336.5" y="278.7"/>
      <point x="336.5" y="435.4" type="curve" smooth="yes"/>
      <point x="336.5" y="665.4"/>
      <point x="472.3" y="828.7"/>
      <point x="664.8" y="828.7" type="curve" smooth="yes"/>
      <point x="724.6" y="828.7"/>
      <point x="796.3" y="817.4"/>
      <point x="837.4" y="795.5" type="curve"/>
      <point x="837.4" y="422.4" type="line" smooth="yes"/>
      <point x="837.4" y="274.5"/>
      <point x="720.8" y="168.2"/>
    </contour>
  </outline>
</glyph>
<glyph name="h" format="1">
  <advance width="1306.6"/>
  <unicode hex="0068"/>
  <outline>
    <contour>
      <point x="1219.1" y="-36.1" type="curve"/>
      <point x="1243.2" y="150.5" type="line"/>
      <point x="1120.1" y="131.9"/>
      <point x="1112.7" y="192.2"/>
      <point x="1112.8" y="319.1" type="curve" smooth="yes"/>
      <point x="1113.0" y="571.3" type="line" smooth="yes"/>
      <point x="1113.3" y="845.4"/>
      <point x="956.7" y="1019.2"/>
      <point x="715.7" y="1019.2" type="curve" smooth="yes"/>
      <point x="609.6" y="1019.2"/>
      <point x="492.9" y="977.3"/>
      <point x="408.7" y="901.1" type="curve"/>
      <point x="408.7" y="1544.0" type="line"/>
      <point x="168.2" y="1513.2" type="line"/>
      <point x="168.2" y="0.0" type="line"/>
      <point x="408.7" y="0.0" type="line"/>
      <point x="408.7" y="564.4" type="line" smooth="yes"/>
      <point x="408.7" y="696.9"/>
      <point x="492.7" y="814.3"/>
      <point x="669.0" y="814.3" type="curve" smooth="yes"/>
      <point x="812.2" y="814.3"/>
      <point x="878.7" y="712.2"/>
      <point x="878.7" y="550.3" type="curve"/>
      <point x="878.5" y="230.9" type="line" smooth="yes"/>
      <point x="878.3" y="28.2"/>
      <point x="958.8" y="-86.1"/>
    </contour>
  </outline>
</glyph>
<glyph name="i" format="1">
  <advance width="721.8"/>
  <unicode hex="0069"/>
  <outline>
    <contour>
      <point x="707.8" y="36.8" type="curve"/>
      <point x="677.6" y="214.3" type="line"/>
      <point x="537.1" y="165.3"/>
      <point x="403.0" y="154.1"/>
      <point x="403.0" y="331.8" type="curve" smooth="yes"/>
      <point x="403.0" y="999.0" type="line"/>
      <point x="167.0" y="999.0" type="line"/>
      <point x="167.0" y="275.5" type="line" smooth="yes"/>
      <point x="167.0" y="-21.7"/>
      <point x="477.6" y="-65.4"/>
    </contour>
    <contour>
      <point x="288.8" y="1182.9" type="curve" smooth="yes"/>
      <point x="383.3" y="1182.9"/>
      <point x="451.7" y="1242.9"/>
      <point x="451.7" y="1331.4" type="curve" smooth="yes"/>
      <point x="451.7" y="1419.9"/>
      <point x="383.4" y="1481.8"/>
      <point x="290.7" y="1481.8" type="curve" smooth="yes"/>
      <point x="195.3" y="1481.8"/>
      <point x="127.8" y="1421.8"/>
      <point x="127.8" y="1332.4" type="curve" smooth="yes"/>
      <point x="127.8" y="1243.0"/>
      <point x="195.2" y="1182.9"/>
    </contour>
  </outline>
</glyph>
<glyph name="j" format="1">
  <advance width="679.4"/>
  <unicode hex="006A"/>
  <outline>
    <contour>
      <point x="133.4" y="-494.5" type="curve" smooth="yes"/>
      <point x="370.1" y="-494.5"/>
      <point x="492.5" y="-348.1"/>
      <point x="492.5" y="-39.7" type="curve" smooth="yes"/>
      <point x="492.5" y="999.0" type="line"/>
      <point x="256.5" y="999.0" type="line"/>
      <point x="256.5" y="-46.6" type="line" smooth="yes"/>
      <point x="256.5" y="-219.1"/>
      <point x="197.5" y="-297.8"/>
      <point x="93.4" y="-297.8" type="curve" smooth="yes"/>
      <point x="84.7" y="-297.8"/>
      <point x="46.9" y="-293.2"/>
      <point x="-15.2" y="-283.6" type="curve"/>
      <point x="-46.8" y="-471.0" type="line"/>
      <point x="19.5" y="-486.3"/>
      <point x="78.4" y="-494.5"/>
    </contour>
    <contour>
      <point x="362.9" y="1176.6" type="curve" smooth="yes"/>
      <point x="458.3" y="1176.6"/>
      <point x="526.7" y="1237.5"/>
      <point x="526.7" y="1325.1" type="curve" smooth="yes"/>
      <point x="526.7" y="1415.4"/>
      <point x="458.4" y="1477.3"/>
      <point x="364.8" y="1477.3" type="curve" smooth="yes"/>
      <point x="270.3" y="1477.3"/>
      <point x="201.9" y="1415.5"/>
      <point x="201.9" y="1326.1" type="curve" smooth="yes"/>
      <point x="201.9" y="1238.5"/>
      <point x="270.2" y="1176.6"/>
    </contour>
  </outline>
</glyph>
<glyph name="k" format="1">
  <advance width="1211.4"/>
  <unicode hex="006B"/>
  <outline>
    <contour>
      <point x="1100.0" y="-64.7" type="curve"/>
      <point x="1212.4" y="122.3" type="line"/>
      <point x="1089.6" y="124.9"/>
      <point x="1031.3" y="176.0"/>
      <point x="938.7" y="286.2" type="curve" smooth="yes"/>
      <point x="764.2" y="496.3" type="line"/>
      <point x="1085.4" y="942.7" type="line"/>
      <point x="861.7" y="990.9" type="line"/>
      <point x="402.4" y="368.5" type="line"/>
      <point x="402.4" y="1532.3" type="line"/>
      <point x="168.2" y="1511.3" type="line"/>
      <point x="168.2" y="85.2" type="line" smooth="yes"/>
      <point x="168.2" y="-39.5"/>
      <point x="308.7" y="-77.7"/>
      <point x="387.0" y="21.6" type="curve"/>
      <point x="620.0" y="322.1" type="line"/>
      <point x="780.1" y="127.8" type="line" smooth="yes"/>
      <point x="886.2" y="-0.8"/>
      <point x="998.7" y="-62.8"/>
    </contour>
  </outline>
</glyph>
<glyph name="l" format="1">
  <advance width="738.2"/>
  <unicode hex="006C"/>
  <outline>
    <contour>
      <point x="726.5" y="211.4" type="line"/>
      <point x="677.8" y="195.2"/>
      <point x="602.9" y="182.7"/>
      <point x="556.7" y="182.7" type="curve" smooth="yes"/>
      <point x="460.2" y="182.7"/>
      <point x="400.4" y="232.8"/>
      <point x="400.4" y="346.9" type="curve" smooth="yes"/>
      <point x="400.4" y="1552.1" type="line"/>
      <point x="164.4" y="1523.0" type="line"/>
      <point x="164.4" y="300.9" type="line" smooth="yes"/>
      <point x="164.4" y="83.0"/>
      <point x="307.9" y="-11.7"/>
      <point x="505.6" y="-11.7" type="curve" smooth="yes"/>
      <point x="582.3" y="-11.7"/>
      <point x="665.2" y="3.6"/>
      <point x="751.5" y="28.7" type="curve"/>
    </contour>
  </outline>
</glyph>
<glyph name="m" format="1">
  <advance width="1976.3"/>
  <unicode hex="006D"/>
  <outline>
    <contour>
      <point x="1888.5" y="-1.9" type="curve"/>
      <point x="1911.7" y="184.7" type="line"/>
      <point x="1787.6" y="168.2"/>
      <point x="1777.4" y="228.4"/>
      <point x="1777.5" y="355.3" type="curve" smooth="yes"/>
      <point x="1777.5" y="571.3" type="line" smooth="yes"/>
      <point x="1777.8" y="845.4"/>
      <point x="1620.5" y="1019.2"/>
      <point x="1379.5" y="1019.2" type="curve" smooth="yes"/>
      <point x="1273.4" y="1019.2"/>
      <point x="1140.4" y="986.1"/>
      <point x="1029.9" y="849.7" type="curve"/>
      <point x="962.2" y="952.5"/>
      <point x="851.8" y="1019.2"/>
      <point x="712.9" y="1019.2" type="curve" smooth="yes"/>
      <point x="600.3" y="1019.2"/>
      <point x="470.9" y="968.2"/>
      <point x="392.7" y="870.8" type="curve"/>
      <point x="380.0" y="921.5"/>
      <point x="349.1" y="968.5"/>
      <point x="319.4" y="996.3" type="curve"/>
      <point x="89.2" y="908.0" type="line"/>
      <point x="149.5" y="834.9"/>
      <point x="191.6" y="721.4"/>
      <point x="191.6" y="618.9" type="curve" smooth="yes"/>
      <point x="191.6" y="0.0" type="line"/>
      <point x="432.1" y="0.0" type="line"/>
      <point x="432.1" y="569.5" type="line"/>
      <point x="433.6" y="733.8"/>
      <point x="533.9" y="814.3"/>
      <point x="671.7" y="814.3" type="curve" smooth="yes"/>
      <point x="795.1" y="814.3"/>
      <point x="875.7" y="730.2"/>
      <point x="875.7" y="550.3" type="curve" smooth="yes"/>
      <point x="875.7" y="0.0" type="line"/>
      <point x="1110.0" y="0.0" type="line"/>
      <point x="1110.0" y="568.0" type="line"/>
      <point x="1110.0" y="727.5"/>
      <point x="1220.6" y="814.3"/>
      <point x="1339.3" y="814.3" type="curve" smooth="yes"/>
      <point x="1480.7" y="814.3"/>
      <point x="1543.2" y="712.2"/>
      <point x="1543.2" y="550.3" type="curve" smooth="yes"/>
      <point x="1543.2" y="267.1" type="line" smooth="yes"/>
      <point x="1543.0" y="64.4"/>
      <point x="1627.3" y="-49.9"/>
    </contour>
  </outline>
</glyph>
<glyph name="n" format="1">
  <advance width="1312.2"/>
  <unicode hex="006E"/>
  <outline>
    <contour>
      <point x="1247.6" y="180.2" type="line"/>
      <point x="1233.7" y="178.4"/>
      <point x="1222.5" y="177.5"/>
      <point x="1211.3" y="177.5" type="curve" smooth="yes"/>
      <point x="1122.5" y="177.5"/>
      <point x="1109.3" y="235.9"/>
      <point x="1109.3" y="348.8" type="curve" smooth="yes"/>
      <point x="1109.3" y="573.2" type="line" smooth="yes"/>
      <point x="1109.3" y="847.3"/>
      <point x="965.3" y="1019.2"/>
      <point x="724.3" y="1019.2" type="curve" smooth="yes"/>
      <point x="593.7" y="1019.2"/>
      <point x="469.2" y="968.1"/>
      <point x="394.8" y="878.0" type="curve"/>
      <point x="378.5" y="918.8"/>
      <point x="351.1" y="968.6"/>
      <point x="321.3" y="996.3" type="curve"/>
      <point x="91.3" y="908.0" type="line"/>
      <point x="151.0" y="835.6"/>
      <point x="193.7" y="721.4"/>
      <point x="193.7" y="618.9" type="curve" smooth="yes"/>
      <point x="193.7" y="0.0" type="line"/>
      <point x="434.2" y="0.0" type="line"/>
      <point x="434.2" y="569.5" type="line"/>
      <point x="435.7" y="733.8"/>
      <point x="552.8" y="814.3"/>
      <point x="672.6" y="814.3" type="curve" smooth="yes"/>
      <point x="796.0" y="814.3"/>
      <point x="875.1" y="713.6"/>
      <point x="875.1" y="551.7" type="curve" smooth="yes"/>
      <point x="875.1" y="265.6" type="line" smooth="yes"/>
      <point x="875.1" y="92.7"/>
      <point x="936.3" y="-17.3"/>
      <point x="1117.8" y="-17.3" type="curve" smooth="yes"/>
      <point x="1149.4" y="-17.3"/>
      <point x="1184.6" y="-13.7"/>
      <point x="1224.4" y="-6.4" type="curve"/>
    </contour>
  </outline>
</glyph>
<glyph name="o" format="1">
  <advance width="1256.3"/>
  <unicode hex="006F"/>
  <outline>
    <contour>
      <point x="630.0" y="168.2" type="curve" smooth="yes"/>
      <point x="455.4" y="168.2"/>
      <point x="338.4" y="300.0"/>
      <point x="338.4" y="497.3" type="curve" smooth="yes"/>
      <point x="338.4" y="694.9"/>
      <point x="454.5" y="828.7"/>
      <point x="628.1" y="828.7" type="curve" smooth="yes"/>
      <point x="802.2" y="828.7"/>
      <point x="917.9" y="695.0"/>
      <point x="917.9" y="497.5" type="curve" smooth="yes"/>
      <point x="917.9" y="300.1"/>
      <point x="803.1" y="168.2"/>
    </contour>
    <contour>
      <point x="628.2" y="-22.0" type="curve" smooth="yes"/>
      <point x="947.4" y="-22.0"/>
      <point x="1158.1" y="186.6"/>
      <point x="1158.1" y="498.6" type="curve" smooth="yes"/>
      <point x="1158.1" y="812.4"/>
      <point x="945.6" y="1019.2"/>
      <point x="627.2" y="1019.2" type="curve" smooth="yes"/>
      <point x="309.3" y="1019.2"/>
      <point x="98.2" y="810.5"/>
      <point x="98.2" y="497.5" type="curve" smooth="yes"/>
      <point x="98.2" y="185.6"/>
      <point x="310.2" y="-22.0"/>
    </contour>
  </outline>
</glyph>
<glyph name="p" format="1">
  <advance width="1329.5"/>
  <unicode hex="0070"/>
  <outline>
    <contour>
      <point x="176.6" y="-492.1" type="line"/>
      <point x="417.1" y="-490.3" type="line"/>
      <point x="418.9" y="69.8" type="line"/>
      <point x="495.8" y="15.6"/>
      <point x="621.4" y="-22.0"/>
      <point x="725.5" y="-22.0" type="curve" smooth="yes"/>
      <point x="1024.0" y="-22.0"/>
      <point x="1232.1" y="196.4"/>
      <point x="1232.1" y="510.8" type="curve" smooth="yes"/>
      <point x="1232.1" y="825.2"/>
      <point x="1029.7" y="1019.2"/>
      <point x="749.0" y="1019.2" type="curve" smooth="yes"/>
      <point x="620.2" y="1019.2"/>
      <point x="467.4" y="953.0"/>
      <point x="398.9" y="825.6" type="curve"/>
      <point x="387.3" y="896.5"/>
      <point x="351.1" y="954.7"/>
      <point x="304.5" y="997.2" type="curve"/>
      <point x="74.6" y="910.2" type="line"/>
      <point x="114.8" y="858.8"/>
      <point x="176.6" y="810.4"/>
      <point x="176.6" y="620.8" type="curve" smooth="yes"/>
    </contour>
    <contour>
      <point x="692.5" y="168.2" type="curve" smooth="yes"/>
      <point x="576.5" y="168.2"/>
      <point x="462.6" y="213.4"/>
      <point x="417.0" y="280.6" type="curve"/>
      <point x="417.0" y="418.7" type="line" smooth="yes"/>
      <point x="417.0" y="659.0"/>
      <point x="544.5" y="828.7"/>
      <point x="724.7" y="828.7" type="curve" smooth="yes"/>
      <point x="893.6" y="828.7"/>
      <point x="991.0" y="701.9"/>
      <point x="991.0" y="504.8" type="curve" smooth="yes"/>
      <point x="991.0" y="304.7"/>
      <point x="870.2" y="168.2"/>
    </contour>
  </outline>
</glyph>
<glyph name="q" format="1">
  <advance width="1389.5"/>
  <unicode hex="0071"/>
  <outline>
    <contour>
      <point x="1147.6" y="-618.0" type="curve" smooth="yes"/>
      <point x="1507.7" y="-429.4" type="line"/>
      <point x="1416.8" y="-247.1" type="line"/>
      <point x="1152.2" y="-381.1" type="line"/>
      <point x="1152.2" y="630.3" type="line" smooth="yes"/>
      <point x="1152.2" y="640.6"/>
      <point x="1153.5" y="956.0"/>
      <point x="1154.0" y="959.4" type="curve"/>
      <point x="960.0" y="975.6" type="line"/>
      <point x="946.8" y="901.5" type="line"/>
      <point x="941.1" y="911.2"/>
      <point x="836.7" y="1019.2"/>
      <point x="606.4" y="1019.2" type="curve" smooth="yes"/>
      <point x="306.3" y="1019.2"/>
      <point x="97.4" y="797.0"/>
      <point x="97.4" y="487.1" type="curve" smooth="yes"/>
      <point x="97.4" y="174.2"/>
      <point x="301.2" y="-22.0"/>
      <point x="582.7" y="-22.0" type="curve" smooth="yes"/>
      <point x="713.0" y="-22.0"/>
      <point x="833.7" y="20.4"/>
      <point x="911.7" y="116.3" type="curve"/>
      <point x="911.7" y="-487.0" type="line" smooth="yes"/>
      <point x="911.7" y="-568.9"/>
      <point x="992.0" y="-700.0"/>
    </contour>
    <contour>
      <point x="607.8" y="169.1" type="curve" smooth="yes"/>
      <point x="435.2" y="169.1"/>
      <point x="338.5" y="297.5"/>
      <point x="338.5" y="492.6" type="curve" smooth="yes"/>
      <point x="338.5" y="690.1"/>
      <point x="458.1" y="828.7"/>
      <point x="638.5" y="828.7" type="curve" smooth="yes"/>
      <point x="762.6" y="828.7"/>
      <point x="873.0" y="774.3"/>
      <point x="911.7" y="695.1" type="curve" smooth="yes"/>
      <point x="911.7" y="508.1" type="line"/>
      <point x="906.6" y="270.5"/>
      <point x="779.6" y="169.1"/>
    </contour>
  </outline>
</glyph>
<glyph name="r" format="1">
  <advance width="882.9"/>
  <unicode hex="0072"/>
  <outline>
    <contour>
      <point x="194.0" y="0.0" type="line"/>
      <point x="434.5" y="0.0" type="line"/>
      <point x="434.5" y="529.3" type="line" smooth="yes"/>
      <point x="434.5" y="626.6"/>
      <point x="496.4" y="801.7"/>
      <point x="691.0" y="801.7" type="curve" smooth="yes"/>
      <point x="731.0" y="801.7"/>
      <point x="768.6" y="795.4"/>
      <point x="809.9" y="784.9" type="curve"/>
      <point x="827.5" y="996.5" type="line"/>
      <point x="792.4" y="1005.6"/>
      <point x="757.4" y="1015.6"/>
      <point x="677.1" y="1015.6" type="curve" smooth="yes"/>
      <point x="567.2" y="1015.6"/>
      <point x="446.4" y="943.9"/>
      <point x="410.4" y="837.8" type="curve"/>
      <point x="395.0" y="912.6"/>
      <point x="361.6" y="960.6"/>
      <point x="321.7" y="999.0" type="curve"/>
      <point x="91.6" y="909.8" type="line"/>
      <point x="131.7" y="861.5"/>
      <point x="194.0" y="810.5"/>
      <point x="194.0" y="619.8" type="curve" smooth="yes"/>
    </contour>
  </outline>
</glyph>
<glyph name="s" format="1">
  <advance width="964.4"/>
  <unicode hex="0073"/>
  <outline>
    <contour>
      <point x="500.0" y="-22.0" type="curve" smooth="yes"/>
      <point x="743.3" y="-22.0"/>
      <point x="862.0" y="106.2"/>
      <point x="862.4" y="301.1" type="curve" smooth="yes"/>
      <point x="862.8" y="465.5"/>
      <point x="772.825" y="531.8"/>
      <point x="550.45" y="601.8875" type="curve" smooth="yes"/>
      <point x="407.275" y="646.775"/>
      <point x="350.4" y="679.25"/>
      <point x="350.4" y="740.9" type="curve" smooth="yes"/>
      <point x="350.4" y="805.0"/>
      <point x="407.1" y="839.5"/>
      <point x="513.2" y="839.5" type="curve" smooth="yes"/>
      <point x="616.2" y="839.5"/>
      <point x="728.9" y="805.9"/>
      <point x="775.1" y="783.4" type="curve"/>
      <point x="817.3" y="941.8" type="line"/>
      <point x="784.6" y="959.7"/>
      <point x="668.4" y="1019.2"/>
      <point x="478.0" y="1019.2" type="curve" smooth="yes"/>
      <point x="203.6" y="1019.2"/>
      <point x="126.6" y="855.5"/>
      <point x="126.3" y="723.3" type="curve" smooth="yes"/>
      <point x="126.0" y="577.7"/>
      <point x="200.725" y="497.275"/>
      <point x="415.925" y="426.325" type="curve" smooth="yes"/>
      <point x="587.925" y="367.975"/>
      <point x="647.5" y="353.3"/>
      <point x="647.5" y="273.5" type="curve" smooth="yes"/>
      <point x="647.5" y="211.9"/>
      <point x="607.9" y="162.8"/>
      <point x="498.8" y="162.8" type="curve" smooth="yes"/>
      <point x="353.8" y="162.8"/>
      <point x="230.9" y="215.4"/>
      <point x="187.7" y="237.5" type="curve"/>
      <point x="135.9" y="66.6" type="line"/>
      <point x="198.2" y="32.8"/>
      <point x="333.3" y="-22.0"/>
    </contour>
  </outline>
</glyph>
<glyph name="t" format="1">
  <advance width="892.1"/>
  <unicode hex="0074"/>
  <outline>
    <contour>
      <point x="575.3" y="-15.2" type="curve" smooth="yes"/>
      <point x="650.3" y="-15.2"/>
      <point x="736.1" y="0.4"/>
      <point x="820.7" y="24.2" type="curve"/>
      <point x="796.3" y="207.5" type="line"/>
      <point x="750.2" y="192.2"/>
      <point x="671.8" y="179.3"/>
      <point x="625.8" y="179.3" type="curve" smooth="yes"/>
      <point x="526.4" y="179.3"/>
      <point x="470.3" y="229.7"/>
      <point x="470.3" y="343.0" type="curve" smooth="yes"/>
      <point x="470.3" y="829.9" type="line"/>
      <point x="753.3" y="829.9" type="line"/>
      <point x="753.3" y="999.0" type="line"/>
      <point x="470.3" y="999.0" type="line"/>
      <point x="470.3" y="1338.7" type="line"/>
      <point x="233.0" y="1307.9" type="line"/>
      <point x="233.0" y="999.0" type="line"/>
      <point x="43.9" y="999.0" type="line"/>
      <point x="43.9" y="829.9" type="line"/>
      <point x="232.5" y="829.9" type="line"/>
      <point x="232.5" y="296.4" type="line" smooth="yes"/>
      <point x="232.5" y="78.6"/>
      <point x="373.9" y="-15.2"/>
    </contour>
  </outline>
</glyph>
<glyph name="u" format="1">
  <advance width="1318.7"/>
  <unicode hex="0075"/>
  <outline>
    <contour>
      <point x="543.6" y="-22.0" type="curve" smooth="yes"/>
      <point x="689.0" y="-22.0"/>
      <point x="825.0" y="49.0"/>
      <point x="893.0" y="158.6" type="curve"/>
      <point x="914.9" y="60.1"/>
      <point x="1038.7" y="-6.9"/>
      <point x="1200.2" y="-3.9" type="curve"/>
      <point x="1233.3" y="203.4" type="line"/>
      <point x="1153.0" y="201.4"/>
      <point x="1101.3" y="258.6"/>
      <point x="1101.3" y="349.7" type="curve" smooth="yes"/>
      <point x="1101.3" y="999.0" type="line"/>
      <point x="861.7" y="999.0" type="line"/>
      <point x="861.7" y="468.4" type="line" smooth="yes"/>
      <point x="861.7" y="285.0"/>
      <point x="742.6" y="164.6"/>
      <point x="568.6" y="164.6" type="curve" smooth="yes"/>
      <point x="466.5" y="164.6"/>
      <point x="399.5" y="246.4"/>
      <point x="402.7" y="379.4" type="curve" smooth="yes"/>
      <point x="407.8" y="578.8" type="line" smooth="yes"/>
      <point x="416.8" y="889.7"/>
      <point x="368.6" y="999.0"/>
      <point x="368.6" y="999.0" type="curve"/>
      <point x="128.0" y="972.1" type="line"/>
      <point x="128.0" y="972.1"/>
      <point x="176.2" y="849.7"/>
      <point x="167.2" y="565.8" type="curve" smooth="yes"/>
      <point x="163.0" y="355.1" type="line" smooth="yes"/>
      <point x="155.9" y="124.1"/>
      <point x="311.8" y="-22.0"/>
    </contour>
  </outline>
</glyph>
<glyph name="w" format="1">
  <advance width="1673.6"/>
  <unicode hex="0077"/>
  <outline>
    <contour>
      <point x="411.7" y="0.0" type="line"/>
      <point x="610.6" y="0.0" type="line"/>
      <point x="840.4" y="606.9" type="line"/>
      <point x="1077.3" y="0.0" type="line"/>
      <point x="1276.0" y="0.0" type="line"/>
      <point x="1654.8" y="999.0" type="line"/>
      <point x="1414.7" y="999.0" type="line"/>
      <point x="1227.8" y="464.3" type="line"/>
      <point x="1215.8" y="435.9"/>
      <point x="1203.2" y="403.5"/>
      <point x="1175.8" y="311.4" type="curve"/>
      <point x="1160.4" y="361.2"/>
      <point x="1137.0" y="420.0"/>
      <point x="1121.6" y="464.2" type="curve" smooth="yes"/>
      <point x="958.2" y="908.1" type="line"/>
      <point x="913.822888911" y="1027.91819993"/>
      <point x="760.248322859" y="1038.61467963"/>
      <point x="713.9" y="903.6" type="curve"/>
      <point x="562.3" y="463.2" type="line"/>
      <point x="550.3" y="435.3"/>
      <point x="537.7" y="403.0"/>
      <point x="509.7" y="311.1" type="curve"/>
      <point x="495.2" y="361.0"/>
      <point x="471.8" y="419.7"/>
      <point x="456.4" y="464.0" type="curve" smooth="yes"/>
      <point x="265.0" y="999.0" type="line"/>
      <point x="18.8" y="999.0" type="line"/>
    </contour>
  </outline>
</glyph>
<glyph name="y" format="1">
  <advance width="1291.3"/>
  <unicode hex="0079"/>
  <outline>
    <contour>
      <point x="561.2" y="-537.2" type="curve" smooth="yes"/>
      <point x="854.8" y="-537.2"/>
      <point x="1106.1" y="-391.5"/>
      <point x="1107.0" y="-7.7" type="curve" smooth="yes"/>
      <point x="1107.9" y="349.7" type="line"/>
      <point x="1107.0" y="999.0" type="line"/>
      <point x="867.4" y="999.0" type="line"/>
      <point x="867.4" y="468.4" type="line" smooth="yes"/>
      <point x="870.1" y="285.0"/>
      <point x="748.3" y="164.6"/>
      <point x="574.3" y="164.6" type="curve" smooth="yes"/>
      <point x="474.0" y="164.6"/>
      <point x="404.3" y="246.4"/>
      <point x="408.4" y="379.4" type="curve" smooth="yes"/>
      <point x="412.6" y="578.8" type="line" smooth="yes"/>
      <point x="422.5" y="889.7"/>
      <point x="374.3" y="999.0"/>
      <point x="374.3" y="999.0" type="curve"/>
      <point x="134.6" y="972.1" type="line"/>
      <point x="134.6" y="972.1"/>
      <point x="183.7" y="849.7"/>
      <point x="173.8" y="565.8" type="curve" smooth="yes"/>
      <point x="168.7" y="356.0" type="line" smooth="yes"/>
      <point x="162.5" y="125.0"/>
      <point x="317.5" y="-22.0"/>
      <point x="549.3" y="-22.0" type="curve" smooth="yes"/>
      <point x="676.0" y="-22.0"/>
      <point x="797.6" y="32.5"/>
      <point x="872.8" y="119.9" type="curve"/>
      <point x="870.1" y="-44.0" type="line" smooth="yes"/>
      <point x="870.1" y="-277.9"/>
      <point x="708.5" y="-328.2"/>
      <point x="520.2" y="-328.2" type="curve" smooth="yes"/>
      <point x="425.8" y="-328.2"/>
      <point x="322.7" y="-305.3"/>
      <point x="235.2" y="-261.1" type="curve"/>
      <point x="191.9" y="-456.4" type="line"/>
      <point x="306.4" y="-508.7"/>
      <point x="437.7" y="-537.2"/>
    </contour>
  </outline>
</glyph>
<glyph name="z" format="1">
  <advance width="1058.2"/>
  <unicode hex="007A"/>
  <outline>
    <contour>
      <point x="135.8" y="0.0" type="line"/>
      <point x="953.3" y="0.0" type="line"/>
      <point x="953.3" y="179.9" type="line"/>
      <point x="425.6" y="179.9" type="line"/>
      <point x="937.2" y="852.6" type="line"/>
      <point x="937.2" y="999.0" type="line"/>
      <point x="161.8" y="999.0" type="line"/>
      <point x="161.8" y="831.6" type="line"/>
      <point x="653.0" y="831.6" type="line"/>
      <point x="135.8" y="148.4" type="line"/>
    </contour>
  </outline>
</glyph>
<glyph name="exclamdown" format="1">
  <advance width="1241.0"/>
  <unicode hex="00A1"/>
  <outline>
    <contour>
      <point x="437.6" y="-609.0" type="line"/>
      <point x="631.8" y="-609.0" type="line"/>
      <point x="626.8" y="637.8" type="line"/>
      <point x="442.7" y="637.8" type="line"/>
    </contour>
    <contour>
      <point x="447.5" y="855.0" type="curve" smooth="yes"/>
      <point x="454.8" y="855.0"/>
      <point x="685.6" y="860.2"/>
      <point x="685.6" y="866.2" type="curve" smooth="yes"/>
      <point x="685.6" y="873.2"/>
      <point x="679.9" y="1094.2"/>
      <point x="674.2" y="1094.2" type="curve" smooth="yes"/>
      <point x="666.9" y="1094.2"/>
      <point x="436.1" y="1089.0"/>
      <point x="436.1" y="1083.0" type="curve" smooth="yes"/>
      <point x="436.1" y="1076.0"/>
      <point x="441.8" y="855.0"/>
    </contour>
  </outline>
</glyph>
<glyph name="sterling" format="1">
  <advance width="2003.5"/>
  <unicode hex="00A3"/>
  <outline>
    <contour>
      <point x="193.3" y="0.0" type="line"/>
      <point x="1310.5" y="0.0" type="line"/>
      <point x="1310.5" y="163.5" type="line"/>
      <point x="487.9" y="163.5" type="line"/>
      <point x="506.6" y="178.3"/>
      <point x="523.3" y="197.1"/>
      <point x="536.1" y="224.6" type="curve" smooth="yes"/>
      <point x="599.2" y="353.6"/>
      <point x="601.2" y="549.8"/>
      <point x="601.2" y="740.9" type="curve" smooth="yes"/>
      <point x="601.2" y="798.0" type="line"/>
      <point x="983.4" y="798.0" type="line"/>
      <point x="983.4" y="962.5" type="line"/>
      <point x="599.2" y="962.5" type="line"/>
      <point x="596.2" y="1095.5" type="line"/>
      <point x="596.2" y="1336.9"/>
      <point x="671.1" y="1512.2"/>
      <point x="911.5" y="1512.2" type="curve" smooth="yes"/>
      <point x="1040.5" y="1512.2"/>
      <point x="1147.0" y="1480.7"/>
      <point x="1227.8" y="1431.4" type="curve"/>
      <point x="1288.8" y="1570.3" type="line"/>
      <point x="1199.2" y="1640.3"/>
      <point x="1074.0" y="1674.8"/>
      <point x="907.6" y="1674.8" type="curve" smooth="yes"/>
      <point x="498.8" y="1674.8"/>
      <point x="400.2" y="1400.0"/>
      <point x="400.2" y="995.1" type="curve" smooth="yes"/>
      <point x="400.2" y="984.2"/>
      <point x="401.2" y="973.4"/>
      <point x="403.1" y="962.5" type="curve"/>
      <point x="191.4" y="962.5" type="line"/>
      <point x="191.4" y="798.0" type="line"/>
      <point x="403.2" y="798.0" type="line"/>
      <point x="403.2" y="509.3" type="line" smooth="yes"/>
      <point x="403.2" y="314.3"/>
      <point x="311.6" y="230.5"/>
      <point x="191.4" y="160.5" type="curve"/>
    </contour>
  </outline>
</glyph>
<glyph name="ordfeminine" format="1">
  <advance width="1005.1"/>
  <unicode hex="00AA"/>
  <outline>
    <contour>
      <point x="434.9" y="649.2" type="curve" smooth="yes"/>
      <point x="550.2" y="649.2"/>
      <point x="637.8" y="691.6"/>
      <point x="689.1" y="754.7" type="curve"/>
      <point x="696.0" y="669.9" type="line"/>
      <point x="847.7" y="669.9" type="line"/>
      <point x="841.8" y="739.8"/>
      <point x="839.8" y="766.5"/>
      <point x="839.8" y="817.7" type="curve" smooth="yes"/>
      <point x="841.8" y="1189.1" type="line"/>
      <point x="841.8" y="1380.2"/>
      <point x="713.7" y="1468.9"/>
      <point x="523.6" y="1468.9" type="curve" smooth="yes"/>
      <point x="370.9" y="1468.9"/>
      <point x="255.6" y="1421.6"/>
      <point x="196.5" y="1322.1" type="curve"/>
      <point x="274.3" y="1235.4" type="line"/>
      <point x="325.5" y="1311.2"/>
      <point x="402.4" y="1344.7"/>
      <point x="516.7" y="1344.7" type="curve" smooth="yes"/>
      <point x="643.8" y="1344.7"/>
      <point x="688.1" y="1298.4"/>
      <point x="688.1" y="1171.3" type="curve" smooth="yes"/>
      <point x="688.1" y="1161.5" type="line"/>
      <point x="602.4" y="1149.7"/>
      <point x="511.7" y="1151.6"/>
      <point x="426.0" y="1139.8" type="curve"/>
      <point x="287.1" y="1118.2"/>
      <point x="144.3" y="1046.3"/>
      <point x="144.3" y="888.6" type="curve" smooth="yes"/>
      <point x="144.3" y="852.2"/>
      <point x="151.2" y="819.7"/>
      <point x="166.0" y="790.1" type="curve" smooth="yes"/>
      <point x="209.3" y="702.4"/>
      <point x="304.9" y="649.2"/>
    </contour>
    <contour>
      <point x="458.6" y="768.4" type="curve" smooth="yes"/>
      <point x="368.9" y="768.4"/>
      <point x="301.9" y="800.9"/>
      <point x="301.9" y="890.6" type="curve" smooth="yes"/>
      <point x="301.9" y="1051.1"/>
      <point x="558.1" y="1018.7"/>
      <point x="688.1" y="1044.3" type="curve"/>
      <point x="688.1" y="1015.7" type="line"/>
      <point x="680.3" y="873.8"/>
      <point x="609.3" y="768.4"/>
    </contour>
  </outline>
</glyph>
<glyph name="guillemotleft" format="1">
  <advance width="1947.1"/>
  <unicode hex="00AB"/>
  <outline>
    <contour>
      <point x="725.6" y="288.0" type="line"/>
      <point x="906.9" y="288.0" type="line"/>
      <point x="611.3" y="715.6" type="line"/>
      <point x="917.7" y="1148.0" type="line"/>
      <point x="732.5" y="1148.0" type="line"/>
      <point x="414.3" y="715.6" type="line"/>
    </contour>
    <contour>
      <point x="1153.2" y="288.0" type="line"/>
      <point x="1335.4" y="288.0" type="line"/>
      <point x="1038.9" y="715.6" type="line"/>
      <point x="1343.3" y="1148.0" type="line"/>
      <point x="1159.1" y="1148.0" type="line"/>
      <point x="842.8" y="715.6" type="line"/>
    </contour>
  </outline>
</glyph>
<glyph name="registered" format="1">
  <advance width="2147.6"/>
  <unicode hex="00AE"/>
  <outline>
    <contour>
      <point x="712.2" y="226.2" type="line"/>
      <point x="883.6" y="226.2" type="line"/>
      <point x="883.6" y="678.4" type="line"/>
      <point x="1041.3" y="678.4" type="line"/>
      <point x="1112.2" y="633.1"/>
      <point x="1162.5" y="554.3"/>
      <point x="1210.8" y="470.6" type="curve" smooth="yes"/>
      <point x="1353.6" y="226.2" type="line"/>
      <point x="1547.7" y="226.2" type="line"/>
      <point x="1510.2" y="289.2"/>
      <point x="1476.7" y="343.5"/>
      <point x="1445.2" y="393.7" type="curve" smooth="yes"/>
      <point x="1375.2" y="506.0"/>
      <point x="1308.3" y="614.4"/>
      <point x="1219.6" y="698.1" type="curve"/>
      <point x="1388.1" y="719.8"/>
      <point x="1526.0" y="806.5"/>
      <point x="1526.0" y="991.7" type="curve" smooth="yes"/>
      <point x="1526.0" y="1087.3"/>
      <point x="1485.6" y="1161.2"/>
      <point x="1403.8" y="1212.4" type="curve" smooth="yes"/>
      <point x="1322.0" y="1263.6"/>
      <point x="1196.9" y="1288.3"/>
      <point x="1027.5" y="1288.3" type="curve" smooth="yes"/>
      <point x="712.2" y="1288.3" type="line"/>
    </contour>
    <contour>
      <point x="1077.8" y="-127.4" type="curve" smooth="yes"/>
      <point x="1365.5" y="-127.4"/>
      <point x="1580.2" y="-13.1"/>
      <point x="1732.9" y="131.7" type="curve" smooth="yes"/>
      <point x="1880.7" y="271.6"/>
      <point x="2006.8" y="470.6"/>
      <point x="2006.8" y="748.4" type="curve" smooth="yes"/>
      <point x="2006.8" y="828.2"/>
      <point x="1995.0" y="905.0"/>
      <point x="1973.3" y="978.9" type="curve" smooth="yes"/>
      <point x="1926.0" y="1135.5"/>
      <point x="1840.3" y="1263.6"/>
      <point x="1732.9" y="1365.1" type="curve" smooth="yes"/>
      <point x="1579.2" y="1509.9"/>
      <point x="1363.4" y="1626.1"/>
      <point x="1071.8" y="1626.1" type="curve" smooth="yes"/>
      <point x="784.1" y="1626.1"/>
      <point x="570.3" y="1511.9"/>
      <point x="415.7" y="1367.1" type="curve" smooth="yes"/>
      <point x="267.9" y="1227.2"/>
      <point x="139.9" y="1028.2"/>
      <point x="139.9" y="749.4" type="curve" smooth="yes"/>
      <point x="139.9" y="669.6"/>
      <point x="151.7" y="592.7"/>
      <point x="173.4" y="518.8" type="curve" smooth="yes"/>
      <point x="220.7" y="363.1"/>
      <point x="305.4" y="233.2"/>
      <point x="413.8" y="131.7" type="curve" smooth="yes"/>
      <point x="568.4" y="-13.1"/>
      <point x="786.2" y="-127.4"/>
    </contour>
    <contour>
      <point x="1077.7" y="8.5" type="curve" smooth="yes"/>
      <point x="837.3" y="8.5"/>
      <point x="644.2" y="99.2"/>
      <point x="514.2" y="222.3" type="curve" smooth="yes"/>
      <point x="388.1" y="340.6"/>
      <point x="286.7" y="518.9"/>
      <point x="286.7" y="751.3" type="curve" smooth="yes"/>
      <point x="286.7" y="980.9"/>
      <point x="388.1" y="1158.2"/>
      <point x="514.2" y="1277.4" type="curve" smooth="yes"/>
      <point x="643.2" y="1398.6"/>
      <point x="833.5" y="1490.2"/>
      <point x="1072.8" y="1490.2" type="curve" smooth="yes"/>
      <point x="1312.2" y="1490.2"/>
      <point x="1505.3" y="1397.5"/>
      <point x="1634.3" y="1275.4" type="curve" smooth="yes"/>
      <point x="1759.5" y="1157.1"/>
      <point x="1860.0" y="978.9"/>
      <point x="1860.0" y="748.3" type="curve" smooth="yes"/>
      <point x="1860.0" y="510.9"/>
      <point x="1761.5" y="340.5"/>
      <point x="1635.4" y="222.3" type="curve" smooth="yes"/>
      <point x="1506.3" y="100.2"/>
      <point x="1324.0" y="8.5"/>
    </contour>
    <contour>
      <point x="880.7" y="815.4" type="line"/>
      <point x="879.7" y="1149.4" type="line"/>
      <point x="1023.5" y="1149.4" type="line" smooth="yes"/>
      <point x="1200.8" y="1149.4"/>
      <point x="1346.7" y="1148.4"/>
      <point x="1346.7" y="974.0" type="curve" smooth="yes"/>
      <point x="1346.7" y="817.3"/>
      <point x="1185.1" y="815.4"/>
      <point x="1025.5" y="815.4" type="curve" smooth="yes"/>
    </contour>
  </outline>
</glyph>
<glyph name="macron" format="1">
  <advance width="1226.6"/>
  <unicode hex="00AF"/>
  <outline>
    <contour>
      <point x="133.0" y="1993.9" type="line"/>
      <point x="795.0" y="1993.9" type="line"/>
      <point x="795.0" y="2148.6" type="line"/>
      <point x="133.0" y="2148.6" type="line"/>
    </contour>
  </outline>
</glyph>
<glyph name="plusminus" format="1">
  <advance width="2456.1"/>
  <unicode hex="00B1"/>
  <outline>
    <contour>
      <point x="847.7" y="258.1" type="line"/>
      <point x="1022.1" y="258.1" type="line"/>
      <point x="1022.1" y="688.6" type="line"/>
      <point x="1539.3" y="688.6" type="line"/>
      <point x="1539.3" y="848.2" type="line"/>
      <point x="1017.2" y="848.2" type="line"/>
      <point x="1017.2" y="1279.8" type="line"/>
      <point x="845.7" y="1279.8" type="line"/>
      <point x="845.7" y="848.2" type="line"/>
      <point x="316.7" y="848.2" type="line"/>
      <point x="331.4" y="688.6" type="line"/>
      <point x="847.7" y="688.6" type="line"/>
    </contour>
    <contour>
      <point x="331.4" y="0.0" type="line"/>
      <point x="1544.2" y="0.0" type="line"/>
      <point x="1544.2" y="160.5" type="line"/>
      <point x="331.4" y="160.5" type="line"/>
    </contour>
  </outline>
</glyph>
<glyph name="uni00B2" format="1">
  <advance width="2004.5"/>
  <unicode hex="00B2"/>
  <outline>
    <contour>
      <point x="477.4" y="1018.0" type="line"/>
      <point x="1108.9" y="1018.0" type="line"/>
      <point x="1108.9" y="1154.0" type="line"/>
      <point x="687.3" y="1154.0" type="line"/>
      <point x="793.7" y="1246.6"/>
      <point x="902.0" y="1335.3"/>
      <point x="987.7" y="1438.7" type="curve" smooth="yes"/>
      <point x="1049.8" y="1514.5"/>
      <point x="1109.9" y="1600.3"/>
      <point x="1109.9" y="1721.5" type="curve" smooth="yes"/>
      <point x="1109.9" y="1761.9"/>
      <point x="1101.1" y="1797.4"/>
      <point x="1086.3" y="1830.8" type="curve" smooth="yes"/>
      <point x="1041.0" y="1924.4"/>
      <point x="942.4" y="1984.5"/>
      <point x="805.5" y="1984.5" type="curve" smooth="yes"/>
      <point x="645.9" y="1984.5"/>
      <point x="535.6" y="1904.6"/>
      <point x="486.3" y="1788.4" type="curve"/>
      <point x="584.8" y="1697.8" type="line"/>
      <point x="623.2" y="1779.5"/>
      <point x="688.3" y="1849.5"/>
      <point x="798.6" y="1849.5" type="curve" smooth="yes"/>
      <point x="890.2" y="1849.5"/>
      <point x="961.1" y="1807.1"/>
      <point x="961.1" y="1720.4" type="curve" smooth="yes"/>
      <point x="961.1" y="1687.9"/>
      <point x="949.3" y="1652.4"/>
      <point x="924.7" y="1613.0" type="curve" smooth="yes"/>
      <point x="900.1" y="1573.6"/>
      <point x="867.6" y="1530.3"/>
      <point x="825.2" y="1483.0" type="curve" smooth="yes"/>
      <point x="721.8" y="1369.7"/>
      <point x="600.5" y="1258.4"/>
      <point x="477.4" y="1146.1" type="curve"/>
    </contour>
  </outline>
</glyph>
<glyph name="cedilla" format="1">
  <advance width="890.8"/>
  <unicode hex="00B8"/>
  <outline>
    <contour>
      <point x="290.0" y="-666.9" type="curve" smooth="yes"/>
      <point x="430.8" y="-666.9"/>
      <point x="568.8" y="-624.5"/>
      <point x="568.8" y="-485.6" type="curve" smooth="yes"/>
      <point x="568.8" y="-361.4"/>
      <point x="457.5" y="-319.1"/>
      <point x="337.3" y="-313.2" type="curve"/>
      <point x="327.4" y="-313.2" type="line"/>
      <point x="347.2" y="-189.1" type="line"/>
      <point x="235.8" y="-189.1" type="line"/>
      <point x="197.4" y="-408.8" type="line"/>
      <point x="234.8" y="-406.8" type="line" smooth="yes"/>
      <point x="247.6" y="-404.9"/>
      <point x="267.3" y="-403.8"/>
      <point x="277.2" y="-403.8" type="curve" smooth="yes"/>
      <point x="347.1" y="-403.8"/>
      <point x="403.3" y="-419.6"/>
      <point x="403.3" y="-488.5" type="curve" smooth="yes"/>
      <point x="403.3" y="-552.6"/>
      <point x="347.2" y="-571.3"/>
      <point x="271.3" y="-571.3" type="curve" smooth="yes"/>
      <point x="209.2" y="-571.3"/>
      <point x="154.1" y="-557.5"/>
      <point x="96.9" y="-543.7" type="curve"/>
      <point x="87.1" y="-642.2" type="line"/>
      <point x="150.1" y="-655.0"/>
      <point x="220.1" y="-666.9"/>
    </contour>
  </outline>
</glyph>
<glyph name="guillemotright" format="1">
  <advance width="1947.1"/>
  <unicode hex="00BB"/>
  <outline>
    <contour>
      <point x="278.4" y="288.0" type="line"/>
      <point x="463.6" y="288.0" type="line"/>
      <point x="781.8" y="717.5" type="line"/>
      <point x="468.6" y="1148.0" type="line"/>
      <point x="285.4" y="1148.0" type="line"/>
      <point x="584.8" y="717.5" type="line"/>
    </contour>
    <contour>
      <point x="738.5" y="288.0" type="line"/>
      <point x="920.7" y="288.0" type="line"/>
      <point x="1239.9" y="717.5" type="line"/>
      <point x="926.7" y="1148.0" type="line"/>
      <point x="746.4" y="1148.0" type="line"/>
      <point x="1040.9" y="717.5" type="line"/>
    </contour>
  </outline>
</glyph>
<glyph name="AE" format="1">
  <advance width="3416.7"/>
  <unicode hex="00C6"/>
  <outline>
    <contour>
      <point x="8.6" y="0.0" type="line"/>
      <point x="235.2" y="0.0" type="line"/>
      <point x="496.3" y="460.1" type="line"/>
      <point x="1244.0" y="460.1" type="line"/>
      <point x="1279.5" y="0.0" type="line"/>
      <point x="2201.6" y="0.0" type="line"/>
      <point x="2201.6" y="171.4" type="line"/>
      <point x="1455.9" y="171.4" type="line"/>
      <point x="1408.6" y="777.3" type="line"/>
      <point x="2126.8" y="777.3" type="line"/>
      <point x="2126.8" y="947.8" type="line"/>
      <point x="1386.9" y="947.8" type="line"/>
      <point x="1343.5" y="1513.2" type="line"/>
      <point x="2175.0" y="1513.2" type="line"/>
      <point x="2175.0" y="1684.6" type="line"/>
      <point x="970.1" y="1684.6" type="line"/>
    </contour>
    <contour>
      <point x="587.9" y="631.5" type="line"/>
      <point x="1094.3" y="1513.2" type="line"/>
      <point x="1152.4" y="1513.2" type="line"/>
      <point x="1222.3" y="631.5" type="line"/>
    </contour>
  </outline>
</glyph>
<glyph name="Thorn" format="1">
  <advance width="2146.1"/>
  <unicode hex="00DE"/>
  <outline>
    <contour>
      <point x="342.5" y="0.0" type="line"/>
      <point x="541.5" y="0.0" type="line"/>
      <point x="541.5" y="512.3" type="line"/>
      <point x="797.7" y="512.3" type="line" smooth="yes"/>
      <point x="990.8" y="512.3"/>
      <point x="1163.2" y="555.6"/>
      <point x="1285.3" y="631.5" type="curve" smooth="yes"/>
      <point x="1403.6" y="707.3"/>
      <point x="1495.2" y="826.5"/>
      <point x="1495.2" y="1013.7" type="curve" smooth="yes"/>
      <point x="1495.2" y="1424.5"/>
      <point x="1147.4" y="1517.2"/>
      <point x="736.6" y="1517.2" type="curve" smooth="yes"/>
      <point x="541.5" y="1517.2" type="line"/>
      <point x="541.5" y="1684.6" type="line"/>
      <point x="342.5" y="1684.6" type="line"/>
    </contour>
    <contour>
      <point x="541.5" y="684.7" type="line"/>
      <point x="541.5" y="1346.7" type="line"/>
      <point x="786.9" y="1346.7" type="line" smooth="yes"/>
      <point x="1064.7" y="1346.7"/>
      <point x="1282.4" y="1288.6"/>
      <point x="1282.4" y="1010.8" type="curve" smooth="yes"/>
      <point x="1282.4" y="954.6"/>
      <point x="1271.6" y="904.4"/>
      <point x="1249.9" y="864.0" type="curve" smooth="yes"/>
      <point x="1183.8" y="739.8"/>
      <point x="1034.2" y="684.7"/>
      <point x="843.0" y="684.7" type="curve" smooth="yes"/>
    </contour>
  </outline>
</glyph>
<glyph name="divide" format="1">
  <advance width="2456.1"/>
  <unicode hex="00F7"/>
  <outline>
    <contour>
      <point x="821.5" y="35.4" type="line"/>
      <point x="1071.8" y="35.4" type="line"/>
      <point x="1071.8" y="278.7" type="line"/>
      <point x="821.5" y="278.7" type="line"/>
    </contour>
    <contour>
      <point x="333.9" y="571.4" type="line"/>
      <point x="1546.6" y="571.4" type="line"/>
      <point x="1546.6" y="732.9" type="line"/>
      <point x="333.9" y="732.9" type="line"/>
    </contour>
    <contour>
      <point x="821.5" y="1020.6" type="line"/>
      <point x="1071.8" y="1020.6" type="line"/>
      <point x="1071.8" y="1263.9" type="line"/>
      <point x="821.5" y="1263.9" type="line"/>
    </contour>
  </outline>
</glyph>
<glyph name="lslash" format="1">
  <advance width="846.8"/>
  <unicode hex="0142"/>
  <outline>
    <contour>
      <point x="194.1" y="0.0" type="line"/>
      <point x="385.2" y="0.0" type="line"/>
      <point x="385.2" y="911.3" type="line"/>
      <point x="583.2" y="1029.5" type="line"/>
      <point x="583.2" y="1188.1" type="line"/>
      <point x="385.2" y="1069.9" type="line"/>
      <point x="385.2" y="1726.0" type="line"/>
      <point x="194.1" y="1726.0" type="line"/>
      <point x="194.1" y="955.6" type="line"/>
      <point x="0.0" y="839.4" type="line"/>
      <point x="0.0" y="680.8" type="line"/>
      <point x="194.1" y="797.0" type="line"/>
    </contour>
  </outline>
</glyph>
<glyph name="oe" format="1">
  <advance width="3320.0"/>
  <unicode hex="0153"/>
  <outline>
    <contour>
      <point x="754.0" y="-46.9" type="curve" smooth="yes"/>
      <point x="998.3" y="-46.9"/>
      <point x="1160.8" y="51.6"/>
      <point x="1230.8" y="227.0" type="curve"/>
      <point x="1300.7" y="57.5"/>
      <point x="1452.4" y="-46.9"/>
      <point x="1680.0" y="-46.9" type="curve" smooth="yes"/>
      <point x="1918.4" y="-46.9"/>
      <point x="2080.1" y="57.6"/>
      <point x="2171.7" y="223.1" type="curve"/>
      <point x="2070.2" y="323.5" type="line"/>
      <point x="1997.3" y="207.3"/>
      <point x="1870.1" y="111.7"/>
      <point x="1692.8" y="111.7" type="curve" smooth="yes"/>
      <point x="1635.6" y="111.7"/>
      <point x="1585.4" y="121.6"/>
      <point x="1541.1" y="141.3" type="curve" smooth="yes"/>
      <point x="1415.0" y="199.4"/>
      <point x="1341.1" y="328.4"/>
      <point x="1336.2" y="506.7" type="curve"/>
      <point x="1336.2" y="529.4" type="line"/>
      <point x="2209.1" y="531.4" type="line"/>
      <point x="2209.1" y="592.5" type="line" smooth="yes"/>
      <point x="2209.1" y="951.1"/>
      <point x="2044.6" y="1203.3"/>
      <point x="1687.0" y="1203.3" type="curve" smooth="yes"/>
      <point x="1454.5" y="1203.3"/>
      <point x="1315.5" y="1099.8"/>
      <point x="1236.7" y="935.3" type="curve"/>
      <point x="1150.0" y="1100.8"/>
      <point x="1009.1" y="1203.3"/>
      <point x="765.8" y="1203.3" type="curve" smooth="yes"/>
      <point x="669.2" y="1203.3"/>
      <point x="582.6" y="1187.5"/>
      <point x="506.7" y="1154.0" type="curve" smooth="yes"/>
      <point x="299.8" y="1064.3"/>
      <point x="155.0" y="865.4"/>
      <point x="155.0" y="573.8" type="curve" smooth="yes"/>
      <point x="155.0" y="488.1"/>
      <point x="168.8" y="407.3"/>
      <point x="195.4" y="331.5" type="curve" smooth="yes"/>
      <point x="274.2" y="111.8"/>
      <point x="458.4" y="-46.9"/>
    </contour>
    <contour>
      <point x="765.8" y="111.7" type="curve" smooth="yes"/>
      <point x="695.8" y="111.7"/>
      <point x="633.8" y="124.5"/>
      <point x="582.6" y="149.1" type="curve" smooth="yes"/>
      <point x="439.7" y="217.1"/>
      <point x="355.9" y="363.9"/>
      <point x="355.9" y="571.8" type="curve" smooth="yes"/>
      <point x="355.9" y="634.9"/>
      <point x="363.9" y="695.0"/>
      <point x="381.6" y="752.1" type="curve" smooth="yes"/>
      <point x="429.9" y="912.7"/>
      <point x="549.1" y="1045.7"/>
      <point x="756.0" y="1045.7" type="curve" smooth="yes"/>
      <point x="1026.9" y="1045.7"/>
      <point x="1142.1" y="846.7"/>
      <point x="1142.1" y="576.7" type="curve" smooth="yes"/>
      <point x="1142.1" y="317.6"/>
      <point x="1026.8" y="111.7"/>
    </contour>
    <contour>
      <point x="1336.2" y="689.1" type="line"/>
      <point x="1340.1" y="735.4"/>
      <point x="1350.0" y="780.7"/>
      <point x="1366.8" y="824.0" type="curve" smooth="yes"/>
      <point x="1417.0" y="945.2"/>
      <point x="1525.4" y="1045.7"/>
      <point x="1693.9" y="1045.7" type="curve" smooth="yes"/>
      <point x="1907.6" y="1045.7"/>
      <point x="2009.1" y="902.8"/>
      <point x="2009.1" y="689.1" type="curve"/>
    </contour>
  </outline>
</glyph>
<glyph name="uni0237" format="1">
  <advance width="846.8"/>
  <unicode hex="0237"/>
  <outline>
    <contour>
      <point x="-29.4" y="-723.3" type="curve" smooth="yes"/>
      <point x="23.8" y="-723.3"/>
      <point x="69.1" y="-714.5"/>
      <point x="108.5" y="-697.7" type="curve" smooth="yes"/>
      <point x="287.9" y="-618.9"/>
      <point x="339.1" y="-400.2"/>
      <point x="339.1" y="-142.1" type="curve" smooth="yes"/>
      <point x="339.1" y="960.3" type="line"/>
      <point x="148.0" y="960.3" type="line"/>
      <point x="148.0" y="-191.3" type="line" smooth="yes"/>
      <point x="148.0" y="-395.3"/>
      <point x="105.6" y="-554.8"/>
      <point x="-74.7" y="-554.8" type="curve" smooth="yes"/>
      <point x="-109.2" y="-554.8"/>
      <point x="-137.7" y="-548.0"/>
      <point x="-172.2" y="-543.0" type="curve"/>
      <point x="-171.2" y="-707.6" type="line"/>
      <point x="-126.9" y="-717.5"/>
      <point x="-80.6" y="-723.3"/>
    </contour>
  </outline>
</glyph>
<glyph name="caron" format="1">
  <advance width="1177.8"/>
  <unicode hex="02C7"/>
  <outline>
    <contour>
      <point x="325.6" y="1971.9" type="line"/>
      <point x="505.0" y="1971.9" type="line"/>
      <point x="781.7" y="2345.3" type="line"/>
      <point x="602.5" y="2345.3" type="line"/>
      <point x="408.4" y="2096.1" type="line"/>
      <point x="219.2" y="2345.3" type="line"/>
      <point x="48.8" y="2345.3" type="line"/>
    </contour>
  </outline>
</glyph>
<glyph name="breve" format="1">
  <advance width="1059.2"/>
  <unicode hex="02D8"/>
  <outline>
    <contour>
      <point x="382.6" y="2052.3" type="curve" smooth="yes"/>
      <point x="574.7" y="2052.3"/>
      <point x="691.9" y="2147.8"/>
      <point x="706.7" y="2326.1" type="curve"/>
      <point x="606.3" y="2326.1" type="line"/>
      <point x="583.6" y="2228.6"/>
      <point x="492.9" y="2176.4"/>
      <point x="374.7" y="2176.4" type="curve" smooth="yes"/>
      <point x="256.5" y="2176.4"/>
      <point x="171.8" y="2224.6"/>
      <point x="155.0" y="2326.1" type="curve"/>
      <point x="54.5" y="2326.1" type="line"/>
      <point x="69.3" y="2140.9"/>
      <point x="185.5" y="2052.3"/>
    </contour>
  </outline>
</glyph>
<glyph name="tilde" format="1">
  <advance width="1116.6"/>
  <unicode hex="02DC"/>
  <outline>
    <contour>
      <point x="23.9" y="2027.4" type="curve"/>
      <point x="145.1" y="2027.4" type="line"/>
      <point x="153.9" y="2092.5"/>
      <point x="187.5" y="2125.9"/>
      <point x="250.5" y="2125.9" type="curve" smooth="yes"/>
      <point x="360.8" y="2125.9"/>
      <point x="431.8" y="2047.1"/>
      <point x="543.1" y="2047.1" type="curve" smooth="yes"/>
      <point x="686.0" y="2047.1"/>
      <point x="753.9" y="2165.3"/>
      <point x="768.7" y="2296.3" type="curve"/>
      <point x="643.6" y="2296.3" type="line"/>
      <point x="635.7" y="2237.2"/>
      <point x="604.2" y="2191.9"/>
      <point x="543.1" y="2191.9" type="curve" smooth="yes"/>
      <point x="521.4" y="2191.9"/>
      <point x="496.9" y="2195.9"/>
      <point x="474.2" y="2204.7" type="curve" smooth="yes"/>
      <point x="407.2" y="2228.4"/>
      <point x="341.2" y="2270.7"/>
      <point x="253.5" y="2270.7" type="curve" smooth="yes"/>
      <point x="110.6" y="2270.7"/>
      <point x="34.8" y="2161.4"/>
    </contour>
  </outline>
</glyph>
<glyph name="dblgravecmb" format="1">
  <advance width="1533.6"/>
  <unicode hex="030F"/>
  <outline>
    <contour>
      <point x="495.9" y="1977.7" type="line"/>
      <point x="634.8" y="1977.7" type="line"/>
      <point x="379.7" y="2340.2" type="line"/>
      <point x="176.7" y="2340.2" type="line"/>
    </contour>
    <contour>
      <point x="806.3" y="1977.7" type="line"/>
      <point x="943.2" y="1977.7" type="line"/>
      <point x="692.0" y="2340.2" type="line"/>
      <point x="489.0" y="2340.2" type="line"/>
    </contour>
  </outline>
</glyph>
<glyph name="uni0311" format="1">
  <advance width="1059.2"/>
  <unicode hex="0311"/>
  <outline>
    <contour>
      <point x="54.5" y="2052.3" type="curve"/>
      <point x="155.0" y="2052.3" type="line"/>
      <point x="171.8" y="2154.7"/>
      <point x="256.5" y="2202.0"/>
      <point x="374.7" y="2202.0" type="curve" smooth="yes"/>
      <point x="492.9" y="2202.0"/>
      <point x="583.6" y="2149.8"/>
      <point x="606.3" y="2052.3" type="curve"/>
      <point x="706.7" y="2052.3" type="line"/>
      <point x="691.9" y="2230.6"/>
      <point x="574.7" y="2326.1"/>
      <point x="382.6" y="2326.1" type="curve" smooth="yes"/>
      <point x="185.5" y="2326.1"/>
      <point x="69.3" y="2237.5"/>
    </contour>
  </outline>
</glyph>
<glyph name="commaaccentcomb" format="1">
  <advance width="855.9"/>
  <unicode hex="0326"/>
  <outline>
    <contour>
      <point x="78.0" y="-1053.4" type="line"/>
      <point x="229.7" y="-1053.4" type="line"/>
      <point x="417.0" y="-517.5" type="line"/>
      <point x="201.2" y="-517.5" type="line"/>
    </contour>
  </outline>
</glyph>
<glyph name="Delta" format="1">
  <advance width="2214.0"/>
  <unicode hex="0394"/>
  <outline>
    <contour>
      <point x="67.9" y="0.0" type="line"/>
      <point x="1482.6" y="0.0" type="line"/>
      <point x="1482.6" y="92.6" type="line"/>
      <point x="880.7" y="1653.1" type="line"/>
      <point x="669.9" y="1653.1" type="line"/>
      <point x="67.9" y="92.6" type="line"/>
    </contour>
    <contour>
      <point x="332.9" y="187.2" type="line"/>
      <point x="732.9" y="1285.6" type="line"/>
      <point x="769.4" y="1408.8" type="line"/>
      <point x="808.8" y="1285.6" type="line"/>
      <point x="1216.6" y="187.2" type="line"/>
    </contour>
  </outline>
</glyph>
<glyph name="uni03A9" format="1">
  <advance width="2701.0"/>
  <unicode hex="03A9"/>
  <outline>
    <contour>
      <point x="168.8" y="0.0" type="line"/>
      <point x="795.3" y="0.0" type="line"/>
      <point x="791.4" y="139.9" type="line"/>
      <point x="731.3" y="179.3"/>
      <point x="678.0" y="225.6"/>
      <point x="627.8" y="277.8" type="curve" smooth="yes"/>
      <point x="496.7" y="417.7"/>
      <point x="387.5" y="614.7"/>
      <point x="387.5" y="877.8" type="curve" smooth="yes"/>
      <point x="387.5" y="971.4"/>
      <point x="402.2" y="1057.1"/>
      <point x="430.8" y="1135.9" type="curve" smooth="yes"/>
      <point x="510.6" y="1350.7"/>
      <point x="690.9" y="1514.2"/>
      <point x="978.6" y="1514.2" type="curve" smooth="yes"/>
      <point x="1075.1" y="1514.2"/>
      <point x="1159.8" y="1496.5"/>
      <point x="1231.7" y="1462.0" type="curve" smooth="yes"/>
      <point x="1429.8" y="1366.4"/>
      <point x="1556.8" y="1161.5"/>
      <point x="1556.8" y="871.9" type="curve" smooth="yes"/>
      <point x="1556.8" y="795.0"/>
      <point x="1546.0" y="719.2"/>
      <point x="1524.4" y="648.2" type="curve" smooth="yes"/>
      <point x="1461.3" y="424.6"/>
      <point x="1320.4" y="256.1"/>
      <point x="1147.0" y="139.9" type="curve"/>
      <point x="1151.9" y="0.0" type="line"/>
      <point x="1753.9" y="0.0" type="line"/>
      <point x="1764.7" y="160.5" type="line"/>
      <point x="1384.5" y="158.6" type="line"/>
      <point x="1485.0" y="238.4"/>
      <point x="1579.5" y="341.9"/>
      <point x="1646.5" y="460.1" type="curve" smooth="yes"/>
      <point x="1710.6" y="576.3"/>
      <point x="1761.8" y="718.2"/>
      <point x="1761.8" y="892.6" type="curve" smooth="yes"/>
      <point x="1761.8" y="1133.0"/>
      <point x="1676.0" y="1322.1"/>
      <point x="1552.9" y="1450.2" type="curve" smooth="yes"/>
      <point x="1426.8" y="1582.2"/>
      <point x="1235.7" y="1676.7"/>
      <point x="984.5" y="1676.7" type="curve" smooth="yes"/>
      <point x="738.2" y="1676.7"/>
      <point x="542.1" y="1589.1"/>
      <point x="410.1" y="1464.9" type="curve" smooth="yes"/>
      <point x="276.1" y="1338.8"/>
      <point x="180.6" y="1149.7"/>
      <point x="180.6" y="897.5" type="curve" smooth="yes"/>
      <point x="180.6" y="817.7"/>
      <point x="190.4" y="740.8"/>
      <point x="209.1" y="668.9" type="curve" smooth="yes"/>
      <point x="264.3" y="445.3"/>
      <point x="390.4" y="277.8"/>
      <point x="552.0" y="158.6" type="curve"/>
      <point x="156.0" y="160.5" type="line"/>
    </contour>
  </outline>
</glyph>
<glyph name="quoteright" format="1">
  <advance width="931.9"/>
  <unicode hex="2019"/>
  <outline>
    <contour>
      <point x="236.3" y="1724.1" type="line"/>
      <point x="389.0" y="1724.1" type="line"/>
      <point x="566.4" y="2233.4" type="line"/>
      <point x="357.5" y="2233.4" type="line"/>
    </contour>
  </outline>
</glyph>
<glyph name="quotesinglbase" format="1">
  <advance width="931.9"/>
  <unicode hex="201A"/>
  <outline>
    <contour>
      <point x="210.5" y="-400.9" type="line"/>
      <point x="364.2" y="-400.9" type="line"/>
      <point x="542.5" y="106.5" type="line"/>
      <point x="333.6" y="106.5" type="line"/>
    </contour>
  </outline>
</glyph>
<glyph name="quotedblbase" format="1">
  <advance width="1725.1"/>
  <unicode hex="201E"/>
  <outline>
    <contour>
      <point x="300.4" y="-400.9" type="line"/>
      <point x="455.1" y="-400.9" type="line"/>
      <point x="631.5" y="106.5" type="line"/>
      <point x="421.6" y="106.5" type="line"/>
    </contour>
    <contour>
      <point x="715.2" y="-400.9" type="line"/>
      <point x="868.9" y="-400.9" type="line"/>
      <point x="1047.2" y="106.5" type="line"/>
      <point x="835.4" y="106.5" type="line"/>
    </contour>
  </outline>
</glyph>
<glyph name="ellipsis" format="1">
  <advance width="2729.7"/>
  <unicode hex="2026"/>
  <outline>
    <contour>
      <point x="267.9" y="-19.1" type="line"/>
      <point x="519.1" y="-19.1" type="line"/>
      <point x="519.1" y="224.2" type="line"/>
      <point x="267.9" y="224.2" type="line"/>
    </contour>
    <contour>
      <point x="892.5" y="-19.1" type="line"/>
      <point x="1143.7" y="-19.1" type="line"/>
      <point x="1143.7" y="224.2" type="line"/>
      <point x="892.5" y="224.2" type="line"/>
    </contour>
    <contour>
      <point x="1517.1" y="-19.1" type="line"/>
      <point x="1768.3" y="-19.1" type="line"/>
      <point x="1768.3" y="224.2" type="line"/>
      <point x="1517.1" y="224.2" type="line"/>
    </contour>
  </outline>
</glyph>
<glyph name="perthousand" format="1">
  <advance width="4020.4"/>
  <unicode hex="2030"/>
  <outline>
    <contour>
      <point x="513.5" y="841.7" type="curve" smooth="yes"/>
      <point x="574.6" y="841.7"/>
      <point x="629.8" y="850.6"/>
      <point x="678.1" y="872.2" type="curve" smooth="yes"/>
      <point x="814.0" y="928.4"/>
      <point x="905.6" y="1059.4"/>
      <point x="905.6" y="1248.6" type="curve" smooth="yes"/>
      <point x="905.6" y="1503.7"/>
      <point x="769.7" y="1659.4"/>
      <point x="515.5" y="1659.4" type="curve" smooth="yes"/>
      <point x="452.5" y="1659.4"/>
      <point x="397.3" y="1649.5"/>
      <point x="349.0" y="1627.9" type="curve" smooth="yes"/>
      <point x="213.0" y="1571.7"/>
      <point x="123.4" y="1443.6"/>
      <point x="123.4" y="1252.5" type="curve" smooth="yes"/>
      <point x="123.4" y="1001.3"/>
      <point x="261.3" y="841.7"/>
    </contour>
    <contour>
      <point x="1394.3" y="-45.0" type="curve" smooth="yes"/>
      <point x="1457.3" y="-45.0"/>
      <point x="1511.6" y="-35.1"/>
      <point x="1560.8" y="-13.5" type="curve" smooth="yes"/>
      <point x="1696.8" y="43.7"/>
      <point x="1786.4" y="170.8"/>
      <point x="1786.4" y="361.9" type="curve" smooth="yes"/>
      <point x="1786.4" y="614.2"/>
      <point x="1652.4" y="773.7"/>
      <point x="1398.3" y="773.7" type="curve" smooth="yes"/>
      <point x="1335.2" y="773.7"/>
      <point x="1278.1" y="763.8"/>
      <point x="1229.8" y="742.2" type="curve" smooth="yes"/>
      <point x="1092.8" y="685.0"/>
      <point x="1004.2" y="557.0"/>
      <point x="1004.2" y="365.8" type="curve" smooth="yes"/>
      <point x="1004.2" y="114.6"/>
      <point x="1143.0" y="-45.0"/>
    </contour>
    <contour>
      <point x="2305.5" y="-45.0" type="curve" smooth="yes"/>
      <point x="2368.5" y="-45.0"/>
      <point x="2422.8" y="-35.1"/>
      <point x="2471.1" y="-13.5" type="curve" smooth="yes"/>
      <point x="2607.0" y="42.7"/>
      <point x="2698.6" y="171.8"/>
      <point x="2698.6" y="361.9" type="curve" smooth="yes"/>
      <point x="2698.6" y="616.1"/>
      <point x="2565.6" y="773.7"/>
      <point x="2310.5" y="773.7" type="curve" smooth="yes"/>
      <point x="2247.4" y="773.7"/>
      <point x="2190.3" y="763.8"/>
      <point x="2142.0" y="742.2" type="curve" smooth="yes"/>
      <point x="2005.0" y="685.0"/>
      <point x="1916.4" y="557.0"/>
      <point x="1916.4" y="365.8" type="curve" smooth="yes"/>
      <point x="1916.4" y="114.7"/>
      <point x="2054.3" y="-45.0"/>
    </contour>
    <contour>
      <point x="498.0" y="997.0" type="curve" smooth="yes"/>
      <point x="354.0" y="983.4"/>
      <point x="297.8" y="1085.2"/>
      <point x="311.4" y="1229.2" type="curve" smooth="yes"/>
      <point x="324.5" y="1367.8"/>
      <point x="394.3" y="1492.2"/>
      <point x="532.9" y="1505.2" type="curve" smooth="yes"/>
      <point x="674.2" y="1518.7"/>
      <point x="731.3" y="1416.9"/>
      <point x="717.9" y="1274.7" type="curve" smooth="yes"/>
      <point x="704.8" y="1137.0"/>
      <point x="636.6" y="1010.1"/>
    </contour>
    <contour>
      <point x="337.7" y="-38.1" type="line"/>
      <point x="483.5" y="-38.1" type="line"/>
      <point x="1564.6" y="1646.6" type="line"/>
      <point x="1422.0" y="1646.6" type="line"/>
    </contour>
    <contour>
      <point x="1397.3" y="85.1" type="curve" smooth="yes"/>
      <point x="1241.6" y="85.1"/>
      <point x="1172.6" y="208.2"/>
      <point x="1172.6" y="365.8" type="curve" smooth="yes"/>
      <point x="1172.6" y="519.5"/>
      <point x="1242.6" y="641.7"/>
      <point x="1397.2" y="641.7" type="curve" smooth="yes"/>
      <point x="1552.9" y="641.7"/>
      <point x="1620.8" y="521.5"/>
      <point x="1620.8" y="363.9" type="curve" smooth="yes"/>
      <point x="1620.8" y="212.2"/>
      <point x="1549.0" y="85.1"/>
    </contour>
    <contour>
      <point x="2309.5" y="85.1" type="curve" smooth="yes"/>
      <point x="2153.8" y="85.1"/>
      <point x="2083.9" y="208.2"/>
      <point x="2083.9" y="365.8" type="curve" smooth="yes"/>
      <point x="2083.9" y="519.5"/>
      <point x="2153.9" y="641.7"/>
      <point x="2308.5" y="641.7" type="curve" smooth="yes"/>
      <point x="2463.2" y="641.7"/>
      <point x="2532.2" y="518.6"/>
      <point x="2532.2" y="363.9" type="curve" smooth="yes"/>
      <point x="2532.2" y="211.2"/>
      <point x="2463.1" y="85.1"/>
    </contour>
  </outline>
</glyph>
<glyph name="guilsinglleft" format="1">
  <advance width="1081.2"/>
  <unicode hex="2039"/>
  <outline>
    <contour>
      <point x="488.3" y="288.0" type="line"/>
      <point x="668.6" y="288.0" type="line"/>
      <point x="373.1" y="715.6" type="line"/>
      <point x="677.5" y="1148.0" type="line"/>
      <point x="494.2" y="1148.0" type="line"/>
      <point x="177.0" y="715.6" type="line"/>
    </contour>
  </outline>
</glyph>
<glyph name="Euro" format="1">
  <advance width="2004.5"/>
  <unicode hex="20AC"/>
  <outline>
    <contour>
      <point x="908.5" y="-35.4" type="curve" smooth="yes"/>
      <point x="1069.1" y="-35.4"/>
      <point x="1190.2" y="5.9"/>
      <point x="1292.7" y="75.9" type="curve"/>
      <point x="1293.7" y="281.8" type="line"/>
      <point x="1191.2" y="202.0"/>
      <point x="1080.9" y="133.1"/>
      <point x="927.2" y="133.1" type="curve" smooth="yes"/>
      <point x="640.6" y="133.1"/>
      <point x="527.3" y="332.1"/>
      <point x="493.7" y="585.3" type="curve"/>
      <point x="1120.3" y="585.3" type="line"/>
      <point x="1142.9" y="744.9" type="line"/>
      <point x="477.0" y="744.9" type="line"/>
      <point x="475.0" y="801.0" type="line" smooth="yes"/>
      <point x="473.1" y="822.6"/>
      <point x="472.1" y="848.2"/>
      <point x="473.1" y="869.9" type="curve"/>
      <point x="473.1" y="882.8" type="line" smooth="yes"/>
      <point x="473.1" y="886.8"/>
      <point x="475.0" y="892.6"/>
      <point x="476.0" y="895.6" type="curve"/>
      <point x="1157.8" y="895.6" type="line"/>
      <point x="1181.4" y="1055.2" type="line"/>
      <point x="496.7" y="1055.2" type="line"/>
      <point x="545.0" y="1280.7"/>
      <point x="665.2" y="1496.5"/>
      <point x="937.1" y="1496.5" type="curve" smooth="yes"/>
      <point x="1096.7" y="1496.5"/>
      <point x="1207.0" y="1414.7"/>
      <point x="1277.0" y="1309.3" type="curve"/>
      <point x="1318.4" y="1528.0" type="line"/>
      <point x="1228.7" y="1612.8"/>
      <point x="1113.4" y="1664.0"/>
      <point x="945.9" y="1664.0" type="curve" smooth="yes"/>
      <point x="854.3" y="1664.0"/>
      <point x="770.6" y="1649.2"/>
      <point x="697.7" y="1619.6" type="curve" smooth="yes"/>
      <point x="475.0" y="1528.0"/>
      <point x="340.1" y="1323.1"/>
      <point x="291.8" y="1055.2" type="curve"/>
      <point x="151.9" y="1055.2" type="line"/>
      <point x="126.3" y="895.6" type="line"/>
      <point x="270.1" y="895.6" type="line"/>
      <point x="269.1" y="869.0"/>
      <point x="267.2" y="846.3"/>
      <point x="267.2" y="820.7" type="curve" smooth="yes"/>
      <point x="267.2" y="791.2"/>
      <point x="269.1" y="766.5"/>
      <point x="272.0" y="744.9" type="curve"/>
      <point x="152.9" y="744.9" type="line"/>
      <point x="130.2" y="585.3" type="line"/>
      <point x="285.9" y="585.3" type="line"/>
      <point x="330.2" y="230.6"/>
      <point x="510.5" y="-35.4"/>
    </contour>
  </outline>
</glyph>
<glyph name="trademark" format="1">
  <advance width="3149.7"/>
  <unicode hex="2122"/>
  <outline>
    <contour>
      <point x="984.6" y="1155.8" type="line"/>
      <point x="1124.5" y="1155.8" type="line"/>
      <point x="1124.5" y="1843.4" type="line"/>
      <point x="1424.0" y="1155.8" type="line"/>
      <point x="1516.6" y="1155.8" type="line"/>
      <point x="1832.9" y="1844.4" type="line"/>
      <point x="1832.9" y="1155.8" type="line"/>
      <point x="1973.8" y="1155.8" type="line"/>
      <point x="1973.8" y="2041.4" type="line"/>
      <point x="1766.8" y="2041.4" type="line"/>
      <point x="1477.2" y="1403.1" type="line"/>
      <point x="1204.3" y="2041.4" type="line"/>
      <point x="984.6" y="2041.4" type="line"/>
    </contour>
    <contour>
      <point x="411.2" y="1155.8" type="line"/>
      <point x="554.1" y="1155.8" type="line"/>
      <point x="554.1" y="1924.2" type="line"/>
      <point x="854.6" y="1924.2" type="line"/>
      <point x="854.6" y="2041.4" type="line"/>
      <point x="117.7" y="2041.4" type="line"/>
      <point x="117.7" y="1924.2" type="line"/>
      <point x="411.2" y="1924.2" type="line"/>
    </contour>
  </outline>
</glyph>
<glyph name="product" format="1">
  <advance width="2641.7"/>
  <unicode hex="220F"/>
  <outline>
    <contour>
      <point x="348.2" y="-554.9" type="line"/>
      <point x="550.2" y="-554.9" type="line"/>
      <point x="550.2" y="1304.1" type="line"/>
      <point x="1387.5" y="1304.1" type="line"/>
      <point x="1387.5" y="-554.9" type="line"/>
      <point x="1593.4" y="-554.9" type="line"/>
      <point x="1593.4" y="1304.1" type="line"/>
      <point x="1723.5" y="1304.1" type="line"/>
      <point x="1742.2" y="1471.6" type="line"/>
      <point x="185.6" y="1471.6" type="line"/>
      <point x="203.4" y="1304.1" type="line"/>
      <point x="348.2" y="1304.1" type="line"/>
    </contour>
  </outline>
</glyph>
<glyph name="summation" format="1">
  <advance width="2129.8"/>
  <unicode hex="2211"/>
  <outline>
    <contour>
      <point x="96.6" y="-554.9" type="line"/>
      <point x="1441.4" y="-554.9" type="line"/>
      <point x="1441.4" y="-383.5" type="line"/>
      <point x="369.6" y="-383.5" type="line"/>
      <point x="1069.0" y="474.6" type="line"/>
      <point x="406.0" y="1308.0" type="line"/>
      <point x="1389.2" y="1308.0" type="line"/>
      <point x="1389.2" y="1471.6" type="line"/>
      <point x="121.3" y="1471.6" type="line"/>
      <point x="121.3" y="1363.1" type="line"/>
      <point x="835.6" y="464.7" type="line"/>
      <point x="96.6" y="-450.5" type="line"/>
    </contour>
  </outline>
</glyph>
<glyph name="radical" format="1">
  <advance width="2214.0"/>
  <unicode hex="221A"/>
  <outline>
    <contour>
      <point x="752.3" y="-257.4" type="line"/>
      <point x="908.9" y="-257.4" type="line"/>
      <point x="1447.8" y="1765.2" type="line"/>
      <point x="1298.0" y="1765.2" type="line"/>
      <point x="865.6" y="170.2" type="line"/>
      <point x="820.2" y="-32.8" type="line"/>
      <point x="752.3" y="167.2" type="line"/>
      <point x="488.2" y="873.6" type="line"/>
      <point x="146.4" y="814.5" type="line"/>
      <point x="169.1" y="685.4" type="line"/>
      <point x="368.1" y="717.9" type="line"/>
    </contour>
  </outline>
</glyph>
<glyph name="infinity" format="1">
  <advance width="2904.8"/>
  <unicode hex="221E"/>
  <outline>
    <contour>
      <point x="583.3" y="397.1" type="curve" smooth="yes"/>
      <point x="628.7" y="397.1"/>
      <point x="673.0" y="404.9"/>
      <point x="715.3" y="418.7" type="curve" smooth="yes"/>
      <point x="858.2" y="468.0"/>
      <point x="958.7" y="576.4"/>
      <point x="1045.4" y="688.7" type="curve"/>
      <point x="1121.3" y="591.2"/>
      <point x="1197.1" y="518.3"/>
      <point x="1270.0" y="470.0" type="curve" smooth="yes"/>
      <point x="1342.9" y="421.7"/>
      <point x="1422.7" y="397.1"/>
      <point x="1508.4" y="397.1" type="curve" smooth="yes"/>
      <point x="1564.5" y="397.1"/>
      <point x="1616.8" y="407.9"/>
      <point x="1668.0" y="427.6" type="curve" smooth="yes"/>
      <point x="1811.8" y="484.7"/>
      <point x="1926.1" y="616.7"/>
      <point x="1926.1" y="813.7" type="curve" smooth="yes"/>
      <point x="1926.1" y="871.9"/>
      <point x="1917.2" y="925.1"/>
      <point x="1897.5" y="974.4" type="curve" smooth="yes"/>
      <point x="1840.4" y="1118.2"/>
      <point x="1710.3" y="1216.7"/>
      <point x="1511.3" y="1216.7" type="curve" smooth="yes"/>
      <point x="1461.1" y="1216.7"/>
      <point x="1415.8" y="1210.7"/>
      <point x="1374.4" y="1196.0" type="curve" smooth="yes"/>
      <point x="1229.6" y="1147.7"/>
      <point x="1134.0" y="1037.4"/>
      <point x="1047.4" y="925.1" type="curve"/>
      <point x="1013.9" y="969.4"/>
      <point x="979.4" y="1009.8"/>
      <point x="943.9" y="1045.3" type="curve" smooth="yes"/>
      <point x="856.2" y="1134.0"/>
      <point x="744.9" y="1216.7"/>
      <point x="577.4" y="1216.7" type="curve" smooth="yes"/>
      <point x="456.2" y="1216.7"/>
      <point x="354.7" y="1165.5"/>
      <point x="286.8" y="1104.4" type="curve" smooth="yes"/>
      <point x="219.8" y="1043.4"/>
      <point x="161.7" y="951.7"/>
      <point x="161.7" y="832.5" type="curve" smooth="yes"/>
      <point x="161.7" y="774.3"/>
      <point x="171.5" y="716.3"/>
      <point x="192.2" y="664.1" type="curve" smooth="yes"/>
      <point x="249.4" y="516.3"/>
      <point x="380.4" y="397.1"/>
    </contour>
    <contour>
      <point x="586.3" y="535.9" type="curve" smooth="yes"/>
      <point x="544.0" y="535.9"/>
      <point x="508.4" y="543.8"/>
      <point x="474.9" y="558.6" type="curve" smooth="yes"/>
      <point x="387.2" y="599.0"/>
      <point x="312.4" y="684.8"/>
      <point x="312.4" y="808.9" type="curve" smooth="yes"/>
      <point x="312.4" y="846.3"/>
      <point x="319.3" y="881.7"/>
      <point x="331.1" y="915.2" type="curve" smooth="yes"/>
      <point x="365.6" y="1010.8"/>
      <point x="444.5" y="1083.7"/>
      <point x="574.5" y="1083.7" type="curve" smooth="yes"/>
      <point x="614.9" y="1083.7"/>
      <point x="653.3" y="1075.8"/>
      <point x="688.8" y="1062.0" type="curve" smooth="yes"/>
      <point x="811.9" y="1013.7"/>
      <point x="894.6" y="910.3"/>
      <point x="966.5" y="805.9" type="curve"/>
      <point x="915.3" y="736.0"/>
      <point x="856.3" y="666.0"/>
      <point x="791.2" y="614.8" type="curve" smooth="yes"/>
      <point x="738.0" y="573.4"/>
      <point x="673.0" y="535.9"/>
    </contour>
    <contour>
      <point x="1511.4" y="535.9" type="curve" smooth="yes"/>
      <point x="1426.7" y="535.9"/>
      <point x="1370.5" y="564.5"/>
      <point x="1317.3" y="604.9" type="curve" smooth="yes"/>
      <point x="1242.5" y="660.1"/>
      <point x="1186.3" y="729.1"/>
      <point x="1125.2" y="808.9" type="curve"/>
      <point x="1172.5" y="878.8"/>
      <point x="1229.6" y="947.8"/>
      <point x="1294.6" y="999.0" type="curve" smooth="yes"/>
      <point x="1348.8" y="1042.3"/>
      <point x="1417.8" y="1083.7"/>
      <point x="1505.5" y="1083.7" type="curve" smooth="yes"/>
      <point x="1543.9" y="1083.7"/>
      <point x="1577.4" y="1076.8"/>
      <point x="1609.9" y="1064.0" type="curve" smooth="yes"/>
      <point x="1692.7" y="1029.5"/>
      <point x="1765.5" y="953.7"/>
      <point x="1765.5" y="839.4" type="curve" smooth="yes"/>
      <point x="1765.5" y="663.1"/>
      <point x="1685.8" y="535.9"/>
    </contour>
  </outline>
</glyph>
<glyph name="J.alt" format="1">
  <advance width="1581.6"/>
  <outline>
    <contour>
      <point x="408.3" y="-38.3" type="curve" smooth="yes"/>
      <point x="486.1" y="-38.3"/>
      <point x="555.1" y="-26.4"/>
      <point x="618.1" y="1.1" type="curve" smooth="yes"/>
      <point x="813.2" y="82.9"/>
      <point x="910.7" y="283.9"/>
      <point x="910.7" y="565.6" type="curve" smooth="yes"/>
      <point x="910.7" y="1672.0" type="line"/>
      <point x="711.7" y="1672.0" type="line"/>
      <point x="711.7" y="551.9" type="line" smooth="yes"/>
      <point x="711.7" y="330.2"/>
      <point x="635.8" y="132.2"/>
      <point x="415.1" y="132.2" type="curve" smooth="yes"/>
      <point x="311.7" y="132.2"/>
      <point x="240.8" y="168.6"/>
      <point x="178.7" y="215.9" type="curve"/>
      <point x="119.6" y="81.9" type="line"/>
      <point x="189.5" y="12.0"/>
      <point x="278.2" y="-38.3"/>
    </contour>
  </outline>
</glyph>
<glyph name="e.alt" format="1">
  <advance width="1808.3"/>
  <outline>
    <contour>
      <point x="730.3" y="-32.5" type="curve" smooth="yes"/>
      <point x="926.3" y="-32.5"/>
      <point x="1084.9" y="43.3"/>
      <point x="1221.8" y="186.2" type="curve"/>
      <point x="1125.3" y="309.3" type="line"/>
      <point x="1039.6" y="205.9"/>
      <point x="899.7" y="132.0"/>
      <point x="739.1" y="132.0" type="curve" smooth="yes"/>
      <point x="584.4" y="132.0"/>
      <point x="435.7" y="211.8"/>
      <point x="384.4" y="419.6" type="curve"/>
      <point x="807.1" y="481.7"/>
      <point x="1144.0" y="575.3"/>
      <point x="1144.0" y="858.1" type="curve" smooth="yes"/>
      <point x="1144.0" y="1051.2"/>
      <point x="985.3" y="1211.7"/>
      <point x="734.2" y="1211.7" type="curve" smooth="yes"/>
      <point x="361.7" y="1211.7"/>
      <point x="158.8" y="921.1"/>
      <point x="158.8" y="587.1" type="curve" smooth="yes"/>
      <point x="158.8" y="193.1"/>
      <point x="424.9" y="-32.5"/>
    </contour>
    <contour>
      <point x="369.7" y="556.6" type="curve"/>
      <point x="367.7" y="576.3"/>
      <point x="366.7" y="595.0"/>
      <point x="366.7" y="613.7" type="curve" smooth="yes"/>
      <point x="366.7" y="840.3"/>
      <point x="503.6" y="1046.2"/>
      <point x="736.1" y="1046.2" type="curve" smooth="yes"/>
      <point x="876.0" y="1046.2"/>
      <point x="955.8" y="968.4"/>
      <point x="955.8" y="863.0" type="curve" smooth="yes"/>
      <point x="955.8" y="676.8"/>
      <point x="700.7" y="607.8"/>
    </contour>
  </outline>
</glyph>
<glyph name="k.alt" format="1">
  <advance width="1822.7"/>
  <outline>
    <contour>
      <point x="300.4" y="0.0" type="line"/>
      <point x="445.2" y="0.0" type="line"/>
      <point x="560.5" y="171.5"/>
      <point x="675.9" y="342.0"/>
      <point x="792.1" y="513.4" type="curve"/>
      <point x="1118.1" y="0.0" type="line"/>
      <point x="1327.0" y="0.0" type="line"/>
      <point x="898.4" y="670.0" type="line"/>
      <point x="1014.7" y="842.4"/>
      <point x="1131.9" y="1014.7"/>
      <point x="1248.2" y="1187.1" type="curve"/>
      <point x="1041.3" y="1187.1" type="line"/>
      <point x="490.6" y="356.6" type="line"/>
      <point x="490.6" y="1764.5" type="line"/>
      <point x="300.4" y="1764.5" type="line"/>
    </contour>
  </outline>
</glyph>
<glyph name="nine.alt" format="1">
  <advance width="2004.5"/>
  <outline>
    <contour>
      <point x="640.9" y="-38.3" type="curve" smooth="yes"/>
      <point x="748.3" y="-38.3"/>
      <point x="843.8" y="-16.6"/>
      <point x="926.6" y="27.7" type="curve" smooth="yes"/>
      <point x="1183.8" y="163.7"/>
      <point x="1310.8" y="468.2"/>
      <point x="1310.8" y="864.2" type="curve" smooth="yes"/>
      <point x="1310.8" y="994.2"/>
      <point x="1298.0" y="1109.5"/>
      <point x="1271.4" y="1209.0" type="curve" smooth="yes"/>
      <point x="1202.5" y="1471.0"/>
      <point x="1040.8" y="1668.1"/>
      <point x="718.7" y="1668.1" type="curve" smooth="yes"/>
      <point x="632.0" y="1668.1"/>
      <point x="552.2" y="1654.3"/>
      <point x="481.3" y="1626.7" type="curve" smooth="yes"/>
      <point x="290.2" y="1550.9"/>
      <point x="148.3" y="1385.3"/>
      <point x="148.3" y="1126.2" type="curve" smooth="yes"/>
      <point x="148.3" y="1050.3"/>
      <point x="161.1" y="978.5"/>
      <point x="185.7" y="915.4" type="curve" smooth="yes"/>
      <point x="257.6" y="731.1"/>
      <point x="423.2" y="604.1"/>
      <point x="676.4" y="604.1" type="curve" smooth="yes"/>
      <point x="885.2" y="604.1"/>
      <point x="1025.1" y="672.1"/>
      <point x="1107.9" y="806.0" type="curve"/>
      <point x="1107.9" y="778.4" type="line"/>
      <point x="1104.9" y="598.1"/>
      <point x="1060.6" y="434.6"/>
      <point x="986.7" y="321.3" type="curve" smooth="yes"/>
      <point x="917.8" y="214.9"/>
      <point x="809.3" y="125.3"/>
      <point x="644.8" y="125.3" type="curve" smooth="yes"/>
      <point x="509.9" y="125.3"/>
      <point x="402.5" y="169.6"/>
      <point x="319.8" y="258.3" type="curve"/>
      <point x="258.6" y="128.2" type="line"/>
      <point x="337.4" y="27.7"/>
      <point x="464.6" y="-38.3"/>
    </contour>
    <contour>
      <point x="707.9" y="766.6" type="curve" smooth="yes"/>
      <point x="477.4" y="766.6"/>
      <point x="352.2" y="904.5"/>
      <point x="352.2" y="1131.2" type="curve" smooth="yes"/>
      <point x="352.2" y="1185.3"/>
      <point x="360.1" y="1235.5"/>
      <point x="377.8" y="1280.8" type="curve" smooth="yes"/>
      <point x="425.1" y="1408.9"/>
      <point x="535.5" y="1505.5"/>
      <point x="709.8" y="1505.5" type="curve" smooth="yes"/>
      <point x="770.9" y="1505.5"/>
      <point x="825.1" y="1493.7"/>
      <point x="872.4" y="1472.0" type="curve" smooth="yes"/>
      <point x="996.5" y="1412.9"/>
      <point x="1094.1" y="1289.7"/>
      <point x="1094.1" y="1111.4" type="curve" smooth="yes"/>
      <point x="1094.1" y="1058.2"/>
      <point x="1085.1" y="1010.0"/>
      <point x="1063.5" y="967.6" type="curve" smooth="yes"/>
      <point x="1006.3" y="848.4"/>
      <point x="881.3" y="766.6"/>
    </contour>
  </outline>
</glyph>
